<mxfile host="app.diagrams.net" modified="2022-08-08T16:26:57.397Z" agent="5.0 (Windows NT 10.0; Win64; x64) AppleWebKit/537.36 (KHTML, like Gecko) Chrome/104.0.0.0 Safari/537.36" etag="VKwFNsNb1v_AAlQKT_LM" version="20.0.3" type="github">
  <diagram id="ijhvYcMuOaqHwzBkjpBb" name="Page-1">
    <mxGraphModel dx="1174" dy="675" grid="1" gridSize="10" guides="1" tooltips="1" connect="1" arrows="1" fold="1" page="1" pageScale="1" pageWidth="850" pageHeight="1100" math="0" shadow="0">
      <root>
        <mxCell id="0" />
        <mxCell id="1" parent="0" />
        <mxCell id="59ba3HTT9blOdmE4UWJ2-1" value="" style="shape=image;verticalLabelPosition=bottom;labelBackgroundColor=default;verticalAlign=top;aspect=fixed;imageAspect=0;image=data:image/png,iVBORw0KGgoAAAANSUhEUgAAAXAAAAD4CAYAAAD1jb0+AAAABHNCSVQICAgIfAhkiAAAAAlwSFlzAAALEgAACxIB0t1+/AAAADh0RVh0U29mdHdhcmUAbWF0cGxvdGxpYiB2ZXJzaW9uMy4yLjIsIGh0dHA6Ly9tYXRwbG90bGliLm9yZy+WH4yJAAAgAElEQVR4nO2de5BlV3Xev3Uf/Z4nEqPRA4QsBVmEklANAmRCCMKAiQuRFKEgjjOxlVLsMimoJGWUuIqQqvwBScWO8yhSE0Q8TogN4RGpKDDICoTYCTKDkEAgxEiDhGY0mhk9RvPuvo+dP+4Zcfe3d991zu3u232k71c11b3PY++199ln9537rbW2hRAghBCifjTW2wAhhBDjoQVcCCFqihZwIYSoKVrAhRCipmgBF0KImtKaZGNTrbkwM731+bKxA0y3F5dbzbQS8poJDYvKXGeIT8M6XTpAF4DKTf9vXDi3GNfQbscXkI2hEddpvbjfIdOm9aljid1kE/d7sRMfoDZCh84DsJmZkW2g34/L1K+VPisAMJ4TTr8TG9hGnnNlni+PZWI39Yttpn6jRzYB6Vzn5839cOxO5hjdz88CAKzHc4wu4Hen7Swf7OHGzyZzzYrf50Y8jmGR3s1ZZ04D6fPhsfZs7o8+DwDWpTb4kqX4fTwRnnkqhHAh1zPRBXxmeite/6p/8HyZO9E4djwq9y/YktRhnfjl6M9NxeeX4gca2vEDbR56Kq6QF1t6kfqbZhMbmPDQT+I2du6Iz89Ox3UuxJOo+fTJqNzbMp+00aAFmPuVTCo63zjwRFS2hbiN3uEnkzbtyivJCCqeOheVeaz4+fZn47FOntVUOh2bx56jA/SC8h/HmXisbXEpLtML31+YS9pkwkxsV2L3dNyv5lMn4vNz8fO24/HzBoD+ts3URvy87fTZuM7NNEdoceT3onE6Xsj4WQBA42T8PJMF+omjcfnilyZ1RNDYh/l08UzmCI/1In24mab3+Ymn4/ObaF7/+JGo3Ljy6tROntcn47Hub47niGdz4xzNsdy8fjaeA4HWnXDwcFT+2tn/9lhSCfQVihBC1BYt4EIIUVO0gAshRE2xSYbSb164JNxw3W8+Xw7t+O9H+4n4+87Ojvh7QSAj5nGxxQIhiTckSLSfOhWVl3Zsisqt06m415uLv9NqP3UmKne2x9+ZNRbpO7Hp+P7Wifi7x+7mzHeF1I/GUvzdYI+/OyRBKkxVH+ukjbn4e9Opo/HYdV4Sf//INicCYqIfp2JPaMXH2sdOj2yzeSb+3rVH3wW3nxn9rIDMHOPz1K8+zTk0Y5ubp0bbBGTspu+o28dorF8az9NknpM2wM8y0VAy97ROxt+bdxdiu5tn43eD+5XM662Zed2pOEcIXkNaT8ffX3e3xboM2wxkxvrp0XMsXYPicqPjzA8AgeZI6zjpSfSu/ek9//w7IYRdXE+pT+BmttXMPmdmPzKzB83sDWa23czuMrP9xc9tZeoSQgixOpT9CuX3AfxJCOFqANcCeBDAbQDuDiFcBeDuoiyEEGJCuAu4mW0B8CYAtwNACGEphHAcwM0A9haX7QXw7rUyUgghREqZT+CvAHAMwH8xs++a2SfNbB7AjhDCeWfFJwHsyN1sZrea2T4z29fpns5dIoQQYgzKLOAtANcD+EQI4TUAToO+LgkDJTSr/IQQ9oQQdoUQdrVbaYCKEEKI8SgTiXkQwMEQwj1F+XMYLOBHzGxnCOGwme0EcHTZGs5jiDwNurPkzTEVK6+9mVQp59Ba9hLpzDXpfHxDZyFus3kmVs678xTpdSZVrdluI68RbqPNkbik9nNUXG820+9eXEnjbOzZwp4xrZM0LvN0fpr6vZBG5rVOx3Z2ya42Rf91aewbXfIQoGfVpX6zpwSQsft43EbyPMnjo0v3N8+2R54H0ki7JnkVcNQcwzY3eY4uZCLzyAuFn0fzdBxhmvR7kbyU2BOC5iwy0fzJvCUPre5F8QewBo0Tj2VjMS7zewMAjVZcR+skjcMm9nyJ530yP56L5xz3KQlhRzpvWydbI88na9Cp+Pn2p0ZHSQOZeXk6vof7vRzuJ/AQwpMAHjezVxaHbgLwQwB3AthdHNsN4I5SLQohhFgVyuZC+YcAPm1mUwAOAPg1DBb/z5rZLQAeA/DetTFRCCFEjlILeAjhPgCJEzkGn8aFEEKsAwqlF0KImjLRdLJAnM+33x4t5vWnc/mD42L7OKWXZcWQQlb703GZw2h71GYuN3diN4mtSRsdzlfJ+aPp/nYmfphCyqcppWn2nmEbqF99CovuTaf3N8hu7henWeWxD834YbVPxGW2KRfCntidzBGym4aa+8UpB3LjZkkubb6AymR2YnN79PwY1El2TvO7QXZPcd5sspmEsz69Bw3O/Z2xy87GofSJTRQinpyf9sea85a340y86FEKiOZZOj9DYz01eqw51cbgHqrDmdc8tvzskutzY+20yXNoOfQJXAghaooWcCGEqClawIUQoqZoARdCiJoycRFzWFRMxMASogcLRsn+dFwniZD9FotazZHnOW8vAPRIQGpMj64jEVZ5Y9Y2i15+vzmfc3IPR3u2HTGvlbbJdif94ufFwhoHVvK+nTzWmc1f+zRDXbtZUEpsjseNnyUANHhP4u5oO1l8ZZs5F3sv93wduz3xlYXWRseZg5lQzGSsti6MPM+CYHI/9zs31rQnsTdH3OdLYi+PdVIfSrwbPNbJHgSjbcpM62QseI54TgnP113qKiGEEBsOLeBCCFFTtIALIURN0QIuhBA1RQu4EELUlMl6oZghDKnInmqd84xId61mBZgudxRiDtdP7/d3lE48XxK1frSi7N0PpF4GvEN80iZ7oVCKYs/7BgAC3cPh2D32vqHrG3BsKjFOiTdG8ryqeUakqRIybVKZ7eZxCZ4HCY1Tts3WaLuSftN543TfztiGkAkppzq7m+Ic5Mm743hscRh8rt8clZ48P/Yi8ea1M9apN06ZdSi+3sJom5I+ZDx+krFK0lDIC0UIIV7QaAEXQoiaogVcCCFqihZwIYSoKRMVMQPiL/xZR2HRg0UVIA1bZjEvES2ScrU2s4ITi3tJ+D6dJ5GE8wl7NgOAUfxuj0KGUyFltPDGuZv5PJATqei8I1L1SXHmXM2eSJq9hsP7k7Emm2iOcbg/3w9kxFfveVLofTLWyRxL20yEr2SsHSGVy45gnMu9ntg9O/p5eTYnDgS5vaDJDE514NVZdayzc4znCAunvCawzYkAyS3kBGMql5gjOfQJXAghaooWcCGEqClawIUQoqZoARdCiJoy+U2Nh/5kpGKgJwYg3fx1hsU8ao8FiETcIUExETQykZh8jRMFGRocbsbRYXS6TL+TyDyyye23L5ymUW9OBKoTickCVRrhWMIGFvO4DmcOecIskEZies+XE0QnNjui2OAax+5krEmU5H7we+DM2VydSSSlU6dnc26sA70LSUSiNwedOZmMdeYjq+/YEJ/nfOCJDZwPPAkfLzNWisQUQogXNFrAhRCipmgBF0KImlLqO3AzexTASQA9AN0Qwi4z2w7gMwAuB/AogPeGEJ5dGzOFEEIwVT6B/7UQwnUhhF1F+TYAd4cQrgJwd1EWQggxIVbihXIzgDcXv+8F8A0AHx55hyHaotlV60v8eUnyO3thsW7YLEaWB8fI7iQ0fvT1ga5vJPmF0zaZ1BuDznsh5yXGOg3PdupwQuldr4acR0hFL5LEmyPxvsHI84ODo71KEruTvOdsU4mx9vK5s93Os/E8fDgcPFcHp1vw0kykHiOUSqFEaowkPYMzryu/77m8965nGt3D88P1Qkua9HPjl/xoXfYTeADwNTP7jpndWhzbEUI4XPz+JIAduRvN7FYz22dm+zpLp0s2J4QQwqPsJ/A3hhAOmdlLAdxlZj8aPhlCCMbZln52bg+APQCwacul2WuEEEJUp9Qn8BDCoeLnUQBfBHADgCNmthMAip9H18pIIYQQKe4CbmbzZrbp/O8A3gbgAQB3AthdXLYbwB1rZaQQQoiUMl+h7ADwRRuEcrcA/PcQwp+Y2bcBfNbMbgHwGID3lmlwVD7wMvmhKaLcD61ujhYY+/1xRI/Rdnohx8ZtlhB7OBy352z2mgorZHMi5iVNumKMK7ywOOtcnw+l5za989X6nc0HznbzHHKinFPhNS7nxtq12xUtqVzx+myb7liucH7k7nHE+VQ45TZH158TrV27eY7Q++sK60jbTJ6n06/lcBfwEMIBANdmjj8N4KZyzQghhFhtFIkphBA1RQu4EELUFC3gQghRUyabD9ziL+fHET0YX/xZmehRRsT0zrvXm99vFkKsqt0VxyV3rLIQSl7/PS96NJcHvapw5kXijdVvuoenBJfHaLNqBGHVvPfeOOTbHH1+pUJqzk43tz6vWN5Yl4msHsPu0dfz2GbygbtjrXzgQgjxgkYLuBBC1BQt4EIIUVO0gAshRE1Zh02Nl4/ETKOT/PpccYf/RHFmSC9iLSf2VK2j4p/J3PXJRqosUla0iUWT3J/yxI6KghFrN1WFttwxNyKxakTbGOJt8vyd86WiXivaXVlQdARmAK5gnGyU7DkIlNhQuHJ053pEYjrPIuknzw8OHwfGErpz6BO4EELUFC3gQghRU7SACyFETdECLoQQNUULuBBC1JSJe6FECm3iOeErsdaPy4nqXNEbY6R9y11f1SuhRGhtdDYX7utsRlc5ZJzbyO3t6/XTG9uqHgK5flf2rnH6Pc7zdcfBC3P320zSCKzQ0yn18Bm9MW+2jqreVWO8e246hcSjZ2VjnU3XwG2sMJQ+vSBzaIXh++fRJ3AhhKgpWsCFEKKmaAEXQoiaogVcCCFqykRFzGDxl/VVw6Rzx5JQ94piXhLmmggaJcQep87Q4JjyiuH/2TbSa4ZJxV26IdOvtM2VhS2b9yxKCIruJtWcT5r7xc/TEd4A324LbAOoXM3mwTXePHXaaHg2cYt+SHl14TSpMiK7SXmPNx2vKlJWG+vkXcy0kZx3REpvfmTrrCjeLoc+gQshRE3RAi6EEDVFC7gQQtQULeBCCFFTJhyJaSPzgfubg6YiRPVIzIp5l0vlAx+tOHi5mMvlLB4tjHC+cE/cDUnYXFpn0mblsXWeVYmNdhNRmo2oLLz56pAnCPIESASoijbn6nDtdqN/R5dzsNDNgnAqGPP9VHbGJWeX9z57ubfd3Ny55181kppFbB4Hz8MgUyeLr/w+L0fpT+Bm1jSz75rZl4ryK8zsHjN72Mw+Y2ZTZesSQgixcqp8hfJBAA8OlT8O4PdCCFcCeBbALatpmBBCiNGUWsDN7FIAfx3AJ4uyAXgLgM8Vl+wF8O61MFAIIUSesp/A/y2A3wZwPhfgSwAcDyF0i/JBAJessm1CCCFG4C7gZvbLAI6GEL4zTgNmdquZ7TOzfZ3FU+NUIYQQIkMZL5RfAPAuM3sngBkAmwH8PoCtZtYqPoVfCuBQ7uYQwh4AewBgYftlsUDreTXk8kP3nWs8Jdw7z7u/52xw1PjEI4RDzJ0+lOo32dDoVgulZqGcbcrXMTqvedIP71lxbdmxpgNeCoEkXJ/Vfm7AbzOxgceqYp7sHEkIuWc33191l/qcTW5KCK+Nit5YuTpW2M9krL33PWvD6JQPqRcSeZBk3iW/TbqgRB1AiU/gIYR/GkK4NIRwOYD3AfhfIYRfAfB1AO8pLtsN4I5yTQohhFgNVhLI82EA/8jMHsbgO/HbV8ckIYQQZagUyBNC+AaAbxS/HwBww+qbJIQQogwKpRdCiJoy8U2Nh7+8T8JJx8gP3WcVyhGMPPHAExgBuOHbLEBUFphK5cWm87zZc9Uw5wz+prWeyDU6XNjZ23lwCT9PLy2BE75dRixy7eYqnLH2bM7V4dqdCOXVBMdcqHbZjXSXtalieP/g2Oj32RX8q9qcsyFJITC6jjRthdNomQ3DK258fh59AhdCiJqiBVwIIWqKFnAhhKgpWsCFEKKmrIOIOfRlvSda5v68eJsSOwLDSiO/Bm2urI5x8iZXjfarKuaVEbX8jXZHlzlKspFsaJva4PU7EbkcG1mgyg21KwAmwpqTo9y5f1AHlR27kzqqbhBeRsR0dDV3fpQRHJ33OdlA2qvTs3kMpwR+N3jorWIkdpk23V3L89UIIYSoC1rAhRCipmgBF0KImqIFXAghaooWcCGEqCkT9UIJRqH0judELqTVeqPb4PO+Z0RcbpQIpXdDhJ0wZ/Cu500/lDfpV+K1QG0kO4o794/hGeHlMQ/Os0raLBNyXDGnuNvvXMTyClMfVLU5a5dXR+Vd6SnUPmdERc+Xqp5QOccKLxQ+ySlfNd+3Z3OmzmTs6Prkdef3lyfVGP0uk1M8Z4sQQoiaoAVcCCFqihZwIYSoKVrAhRCipqxzPnA6VyKk3BNOKgstTvh+Eiadu8b7M1gxBL1Mv31Ry8kPPUbudS/8t7KNvdH15+pMROdkE+pqYe25fpu3yW2/Wnh3mTD2xO4Sz2eUDclYlviotuqCcal84HSA+91d4fNMhNn0fXb3CGCnBC9U3nlvsm3y43ccAEZULYQQog5oARdCiJqiBVwIIWqKFnAhhKgpkxUxjYSxcSIxvVzL3dF1upF5JB7kbFhxPnDHhlL9dgRCLx90qUjMinnMXWHUiaLLjvUKox7dKLtcm1U3pV4FEdMV5yrOMff5l9po12nTE17HicSsGGlZeaxzfaoaienlGC+RD9wd25IfrfUJXAghaooWcCGEqClawIUQoqa4C7iZzZjZX5jZ/Wb2AzP7F8XxV5jZPWb2sJl9xsym1t5cIYQQ5ynzCXwRwFtCCNcCuA7AO8zs9QA+DuD3QghXAngWwC1rZ6YQQgjG9UIJIQQAp4piu/gXALwFwN8uju8F8FEAn3DrG1JsqyrnuWNuuHZVb4wSHiZu6G3FcP7E+2IMDwHXQ6Si902pOjzPBkfNX40UAonHyFp43yRj5aQp8OZoNpSeDjjP05tjSSqFMTxCVuxdVcbzxZv7K5zXHJJeytOp4livxp4CVc8/31aZi8ysaWb3ATgK4C4AjwA4HkI477R3EMAly9x7q5ntM7N93XOny1klhBDCpdQCHkLohRCuA3ApgBsAXF22gRDCnhDCrhDCrtbM/JhmCiGEYCp5oYQQjgP4OoA3ANhqZue/grkUwKFVtk0IIcQIynihXGhmW4vfZwH8IoAHMVjI31NcthvAHWtlpBBCiJQyofQ7Aew1syYGC/5nQwhfMrMfAvhjM/uXAL4L4Ha3JtrUuGpu7tyxFYd78+a/nPs5J+R4dfQ9kcsRmHKih3eNJ746NoM3RYYvvnpj23c2ZuVI7JzA5LbpbPZc9X6ghJi3QiGdN9rN2pW04cyxqmLuGIJxIuaN4QDgtumUq4q9SVj7GHMsEVazO0IPnS6zkXLVfQqWoYwXyvcAvCZz/AAG34cLIYRYBxSJKYQQNUULuBBC1BQt4EIIUVMmmg88IP5y3hU9Mn9ekmjNitFiyfmqG/OWqcMR1ipH7o1hV+WIxBLCaVURMycQVrEpf0010bmqaA2sXBBMhbe4zSZv5pxpwx1rttHLg18iErOqOJ8IiuO8OyuMjPbGuhFGOxRkbfIEfhYx+XQZEdMTSpUPXAghXthoARdCiJqiBVwIIWqKFnAhhKgpWsCFEKKmTH5X+mH11d3dO41ZbdhorwM3LJaousP44KBzj+cp4e5Kn/bbKPy+3xothVcNSW6MEe6b2Jko6WSTt/t3CbXe81TKhuMP308zPhtKzzmkucmKHh5l2uzTNebNsV41b5yxcs5XTVtAJHM0E4LO89p9nz0beayD73XEY508CxrrBnnjjOOFkqYEITsbOTchtxohhBB1QQu4EELUFC3gQghRU7SACyFETZmsiAmgPyQipGIPfZFfYhPUVChxRJFEHGLxgM9njCCRggUi88KWuQ0WXnLiUMWNct1Qakd4BXwhhe1OzjuidJIXPVNf1TB1FsXczX9z/c4986hNKnvj4AhWg2OsEDt1OM+TbRpnA+l0XlcT2sps5uw6AHi58yumpci+WyzOeuk3WNXmd6+E2Js4AJQQ9HPoE7gQQtQULeBCCFFTtIALIURN0QIuhBA1ZX0jMSvml85e42y8yiJnImo5AmJOgEj2OK2YozoRwRwhtYxdab/pehYQWTDO5cXmNiqKPZ5QUyZ/dDK2bHfPEUIpT3YyH8bJzZ2IVKMjDhObuyXGOokO5AMk1nriH49L7t3y3kdvDnriXYnNnD3xNX1fnfnhOTXA36yZSdrkCzhSs8z7LBFTCCFeXGgBF0KImqIFXAghaooWcCGEqClawIUQoqZMdld6i1VkVr3TnMVp7K23K32jy6o0VZDs3j1avU/zbgMNzr3teBm4aj4r65k2037TTudLThtOCHk/44XS4LzIiQeP530xOh94GpKeC2vna8imzug6mv1qodiDa0Z7BRk/X55jjldDLme5ud41o8/zuPCz8/qUg9vsU5vchpemIuuNkbyPo8uJx5b3bpUIa09s8HLtp1XE5/vjeJXxurVK+cDN7DIz+7qZ/dDMfmBmHyyObzezu8xsf/FzW6kWhRBCrAplvkLpAvjHIYRrALwewG+Z2TUAbgNwdwjhKgB3F2UhhBATwl3AQwiHQwj3Fr+fBPAggEsA3Axgb3HZXgDvXisjhRBCpFQSMc3scgCvAXAPgB0hhMPFqScB7FjmnlvNbJ+Z7eudOb0CU4UQQgxTWsQ0swUAnwfwoRDCCRvaXDiEEMwyiuPg3B4AewBg9qLLwqjcyYl4UCaUnu5pLI3e3BfO/Uk5Y0QiUrDYk5Tj+xtOqH1WaKE6uM6tDy9G5RM/Nx3fn9Q3WgwCMrm2bbRwlmzE64ScJyJnrt/8/JLnRdezaFnxfiANv07EuXZcTvJme3nuM4JxMkdInE1FTEfUbNMcJJvL4InziWCcnI/rYxEc8N/nJC2FG2pP/XZSTABAY3G0YMwk4fn8OLmNMkI5v9+ZPPU5Sn0CN7M2Bov3p0MIXygOHzGzncX5nQCOlmpRCCHEqlDGC8UA3A7gwRDC7w6duhPA7uL33QDuWH3zhBBCLEeZr1B+AcCvAvi+md1XHPtnAD4G4LNmdguAxwC8d21MFEIIkcNdwEMIf4bst9EAgJtW1xwhhBBlmXg+8EhEYLGn7X9xz6IGizWdzfG3Qv1WrGJwFKUnavVzJvGoeTmJW6PFHe5DTkRJxJx23K+nXj0T18kiCCuMjng7OEZjlTwvVojIRhIxvX5nBW5jUcsRQjkKMhED4wv6rVQ55bzWTG/KGTsWb8uMNY8df2Ry86LHl/dL5MH24PcxcJQzR4uyoMjzI5t73Xs3+HoqO3nuk6jYTIRjIr4761CyJvB74Ymc8KOvVy0SUwghxMZEC7gQQtQULeBCCFFTtIALIURN0QIuhBA1ZfL5wIdUZDe/dK4OR9Ff2kTXs6cDV0heCaHFUnrGBt51mtV6DrXnnMbsxVDCC6XfoWPklbC0mWz0PHp4HDPXh46jhDs5pjl/NHsl9Kbigck+fzaB6khCyOkBJzmruY3cWLMXCucDp1j5NAUEezqRze1cegZus+Ic43HwPCty04OP8fPld4lC55te2oLMx0We18kcmR7tdZbMDx7rPnulpR039o7xdp3nAzzvkxZSknfeyXO+HPoELoQQNUULuBBC1BQt4EIIUVO0gAshRE2ZfCj9kIDHm8OyQJWjzyIjiQHdOUecYy1wikSTRV9IZYGo0Y5VLxbvUuFktLjHIgqQCa0lu7sL1frdmCKbl9K/5UmIPwtrU04oPT9OztU87QupLFIZi5g8h1i0ovzwSb/5/kwd/DEnCd92hDWbYpszY81DSXPAm2OJqOmkPTAW4oFEfTMaqyR03kuFUCaUngVdrtObI95Y85zMrHicOiHpdyd+XoHV2AbbVMIRgt9xGqv+VLnP1voELoQQNUULuBBC1BQt4EIIUVO0gAshRE1ZBxFzqEyCBAtMyeayyIgxdE9vnv4mcWQWCRDNFt3P0YEl/sa12iz2kOjRjss9jrIi4cVYFMnUweJrd44jSjnMNR7LFvW7P5WGfrFA2JuhTWzJhkRYozILTHx9dtsQStbcprHucJvUT456bbIYmBGLknnHgpMjzgbjsaZnxeIv0nkWvSdI7U7EOa6SN07mSL9cznMOUqV3rdtzomCnKDKTn3dGMGZBN3mfZ+keflzO/OjSOOVs6Gyid4ujQen6ZH7wGsM2ZsRbfucTkVoiphBCvLDRAi6EEDVFC7gQQtQULeBCCFFTJp5OdnhDWI6qaiciZlpHpx2LbS26pzNHoghH7pGeMD0d73rb68b1Z7UeEoimp7vxeYrk65LNnEe3NR23YrzLKoAORYO12nGbi3PURiaacxi2uZ8oq0CP0sl256nfU3EdPRJrWEBq0rPqsom53V9ZpKI2efPeHotWs3F1sxyJmes31cFziMU+Fp37jfhZTdEcy4nzPd4XmcS7eW+O5SIrh2jwZs6dTL5S6iaPNdvdY5GbxjqZH43082KHRMzkfeZ+8dg584Nt7nZSG5a2xB2foefVsXiZjFsAGrzGlBhrdthgR4il6XL5ZPUJXAghaooWcCGEqClawIUQoqZoARdCiJriLuBm9ikzO2pmDwwd225md5nZ/uLntrU1UwghBFPGC+UPAPwHAH84dOw2AHeHED5mZrcV5Q+7NTUC+jNDCu1srLzOzSxF5S7nZQbQXYpNnp6JFWNWpZleI1Z356fjNnsUBr8IimnOwHUkyve52GZWoGdmR98PAD1S62dJKe9TCgH2zmC8fgPAWcoRzl5Ds1RHhzw62FOC+7nUjMeFPYAAJM9zjvrN+wef5RBz8sZZmFmMyv2M98Yie2OQBwi3yXX0mqNtznGOYuc5Mt6bY8k+uw3ydCLPiKVcznnyIpqn95G9o86SFwpv7szzg583kM47fp/ZwyeZIxXnRy/jhdKnjdC5jrPO3t5T0+yNFbeRaTLxlplqs1fYKoXShxC+CeAZOnwzgL3F73sBvLtUa0IIIVaNcb8D3xFCOFz8/iSAHctdaGa3mtk+M9vXO3V6zOaEEEIwKxYxQwgB2U2Dnj+/J4SwK9Yro3UAAAz9SURBVISwq7kwv9LmhBBCFIy7gB8xs50AUPw8unomCSGEKMO4ofR3AtgN4GPFzztK3dUAMCRizm0+F53eOnc2Kp/rpuYtLsbHtszGdSxRXutzHRLKerGAuG0mbpM5nhFS2yQ4bHXqODfTjspzc7GQtpmEtaVMeHeXREweq1YzFqnOLMZtNkgM8mwGgA4Jxiy8bCMbznTiNllo857VqbPTiQ1N6tf22TPxPa1Y/GMBqTEb38/97mWeL4uSm+dju5sNHmuygepkm6daqTD+NItW09XmGKedmJmKhbgpyv9+wmaSOvpk99ZZnmMU5k4h4iyU8vw4vZT2m+f1ZpojHWeOVJ0fbDMA2Gw8Vtxvft6nbbQwzvM+N9Ys8G6iMre5HGXcCP8IwP8D8EozO2hmt2CwcP+ime0H8NaiLIQQYoK4n8BDCO9f5tRNq2yLEEKICigSUwghaooWcCGEqCmT3dQYgA2JDpdtOx6d2zl3IiofO7eQ3P/sybmofOmm48k1wzx+cmvcPp2/bP7ZqDzXogjFjMjFQsll87ENM81YgDpxJhYxLt4c9/OCmdg//tjZtN8sxvJYLc3E4sxPT8TZDean4n6xzQvtWIgBgCWKenvJfNzvl9HYHT67OSp3SYy9eOG5pI1h9ncvTI6x8HnxfFzH2V4snHIE6lw7FqhevhDHpOWiXs8uxXXyHOPn+9jJeKybJHJdSmN9upeKeTzPZlpxG2x3qxHPa35Wl9AcW2jFz/eBxYsSGzbNxtfw8z05HQuIPHabpkfff+jMlqTN0yQAX0JzpEFj+VD3pVGZ5weP9clubHPufZ6lOZLYbandw3g27++k83o7CbwXzpyKz8/E7/v9y7StT+BCCFFTtIALIURN0QIuhBA1RQu4EELUFC3gQghRUyzktn5fIy7/ywvhI1+49vnyuX6s9j9w+tKofMOmR5I6OiFWZ8/0p6kcq9oXtE6OtOng0vaovKM92lMCSFXme567IirfuOXhqNyjv5PsKbH/bJzM8dXzB5M2l5J+U/7oELex0KTwb8ow/dOll0Tlne3R3jw5PLt7ZNO5ED/vU73YO8d7VgBwuBN7X2xrxR48bYvDvRm2+erZw8k1/LwWaZ6eJLsvnoq9Frjfz/TiJG4zxvuaAw2Lnw8/rx+d3RmVXz0Xj3UnNKkcz5fnaMv4S6c4Q3Rq95FO7H2xpRV7IbGNTJl5zWsAzxHu1/bm6Iym3rzmZ5vj0GLsVfSXZp+MbeyzjfFY8/y4oJ3Oax47XofmmrFHz22v+up3Qgi7uB59AhdCiJqiBVwIIWqKFnAhhKgpWsCFEKKmTDSUfktjEW+fO/B8+QkKKX6mG4eQv3bmp0kdmyhP7g+XYsHhmV5cxxtnH4/Ki6TZfrtxWVS+uB0LUle3U9HkGG9aSkLLdWT3xc04jP1AN04HwMLNjbM/SdqcI+H0/qUL4jpI1HzdzBNRmfv9f0g0u2oqFmoA4AoSrfh5sSDEdm9KbI4FptMkQLPNANBhu89eHpVfSsLntVNPR+Vj/XiKs3h04+wBMDzHHiIx7/FO3I+3zKV1DHMvha3PWZq24NUkhLLdM4043Pu1M49F5e2NWLx9qBOnNfjxUmzDX830m/m/514elS9qxYLgNST4H6G0BszrZh5Njnlj/TS9zzfOHIrKPK//nATil7VjsfaV7TjFAJDafR+tCTyv+V18gOb1iX4sYr52OrYZADqU1ONLvXhNuHI6fR9z6BO4EELUFC3gQghRU7SACyFETdECLoQQNWWikZjXXzsdvvmVn4kpZ0IszJzsx7Zc2Ew11oVGLBAc7Y2OzNpG17ctFhwPduM8vFsbcZvcHgAskt2PdWORckcz/rs4Z7H491w/jpKcRL+Zg13KR5xpk8fqTD/u9+kQC1AXNmNRctpiccizeUsjzZPdoM8YPyW7tzRo42Tqd59EyyO9WEDc0Uw3UuY2n+qN3lB4O9XRQjxuh3qxGDxnaQ5yz+5jZDePNbf5dJ82FC4xx/h5P9GN29zaoHnd4CjKWEB8rh8Lqxdknu8cHRtnjgxzkGzeTjYvNNLnze/zyX7cjwuacRRrgwRIHmsm9y5ymw91Yjs3kWj98y87rEhMIYR4IaEFXAghaooWcCGEqClawIUQoqZoARdCiJoy0VD6MwH47tLPmrywGSutMyTOsxo8IPbgeJJ2Pr+oGSvfnz8Vh5z/rYU41Pqt3/rNqHzvjbdH5W/GzQEAdk3Fiv4T3U1ReXsjDu8+TCo1h4e3qd9Hemm/pynPNff7Yur3n5+LPQRumI478r/PxjnM37OQpi34s3Oxen4V7VzPf/3ZS6VDNrMnBD/vhzppLu8rWvGxz514TVS+dWu8X/dfLMaVXjsV33+M0gFsaaRjfYa8JzisnefYgU7c75e34n5+4Cfvicp7r/hC0uZ3l2Kvk2vacRvPkA1bG3w+fjaxRUgydz/eTXN5X9SMj3359M9H5b+z+cdR+Z7FeI5d3Y69sc5R3vtTga0C+v24zeNk1laaZA/SOL2iHZe/fS4Og3/7XBzG/nAnTWNwYTN+Xmwle4x0yPuKvcg2kWfUkYwX0wx5Ih3rxSkE5ixOrbAc+gQuhBA1ZUULuJm9w8weMrOHzey21TJKCCGEz9gLuJk1AfxHAL8E4BoA7zeza1bLMCGEEKNZySfwGwA8HEI4EEJYAvDHAG5eHbOEEEJ4jB1Kb2bvAfCOEMLfL8q/CuB1IYQP0HW3Ari1KL4SwEPjm7umXADgqfU2oiR1shWol72ydW2QrSvj5SGEC/ngmnuhhBD2ANiz1u2sFDPbl8s1sBGpk61AveyVrWuDbF0bVvIVyiEAwz47lxbHhBBCTICVLODfBnCVmb3CzKYAvA/AnatjlhBCCI+xv0IJIXTN7AMAvgqgCeBTIYQfrJplk2fDf80zRJ1sBeplr2xdG2TrGjDRfOBCCCFWD0ViCiFETdECLoQQNeVFtYCb2WVm9nUz+6GZ/cDMPpi55s1m9pyZ3Vf8+8h62FrY8qiZfb+wY1/mvJnZvytSGXzPzK5fJztfOTRe95nZCTP7EF2zruNqZp8ys6Nm9sDQse1mdpeZ7S9+blvm3t3FNfvNbPc62fqvzexHxXP+opltXebekXNmQrZ+1MwODT3rdy5z70RTcSxj62eG7HzUzO5b5t6JjmtpQggvmn8AdgK4vvh9E4AfA7iGrnkzgC+tt62FLY8CuGDE+XcC+AoAA/B6APdsAJubAJ7EIPBgw4wrgDcBuB7AA0PH/hWA24rfbwPw8cx92wEcKH5uK37ftg62vg1Aq/j94zlby8yZCdn6UQD/pMQ8eQTAFQCmANzP7+IkbKXz/wbARzbCuJb996L6BB5COBxCuLf4/SSABwFcsr5WrYibAfxhGPAtAFvNbOc623QTgEdCCI+tsx0RIYRvAniGDt8MYG/x+14A787c+nYAd4UQngkhPAvgLgDvWDNDkbc1hPC1EJ7fNfhbGMRdrDvLjGsZJp6KY5StZmYA3gvgj9bShtXmRbWAD2NmlwN4DYB7MqffYGb3m9lXzOxVEzUsJgD4mpl9p0hJwFwC4PGh8kGs/x+k92H5l2CjjOt5doQQDhe/PwlgR+aajTjGv47B/7xyeHNmUnyg+LrnU8t8NbXRxvWvADgSQti/zPmNMq4RL8oF3MwWAHwewIdCCCfo9L0Y/Pf/WgD/HsD/nLR9Q7wxhHA9Bhkff8vM3rSOtrgUAV3vAvA/Mqc30rgmhMH/kze8T62Z/Q6ALoBPL3PJRpgznwDwcwCuA3AYg68mNjrvx+hP3xthXBNedAu4mbUxWLw/HUJItkYJIZwIIZwqfv8ygLaZXcDXTYIQwqHi51EAX8Tgv53DbLR0Br8E4N4QwhE+sZHGdYgj579yKn4ezVyzYcbYzP4egF8G8CvFH5yEEnNmzQkhHAkh9EIIfQD/eRkbNtK4tgD8TQCfWe6ajTCuOV5UC3jxPdftAB4MIfzuMtdcVFwHM7sBgzF6OnftWmJm82a26fzvGIhYD9BldwL4u4U3yusBPDf0lcB6sOynmI0yrsSdAM57lewGcEfmmq8CeJuZbSu+CnhbcWyimNk7APw2gHeFEM4sc02ZObPmkA7zN5axYSOl4ngrgB+FEA7mTm6Ucc2y3irqJP8BeCMG/03+HoD7in/vBPAbAH6juOYDAH6AgSr+LQA3rpOtVxQ23F/Y8zvF8WFbDYNNNR4B8H0Au9ZxbOcxWJC3DB3bMOOKwR+WwxhseXgQwC0AXgLgbgD7AfwpgO3FtbsAfHLo3l8H8HDx79fWydaHMfjO+Py8/U/FtRcD+PKoObMOtv7XYj5+D4NFeSfbWpTfiYEn2CPrZWtx/A/Oz9Oha9d1XMv+Uyi9EELUlBfVVyhCCPFCQgu4EELUFC3gQghRU7SACyFETdECLoQQNUULuBBC1BQt4EIIUVP+P6laThoyEJWIAAAAAElFTkSuQmCC;clipPath=inset(2.48% 28% 10.4% 7.67%);" vertex="1" parent="1">
          <mxGeometry x="351" y="240" width="208.34" height="190" as="geometry" />
        </mxCell>
        <mxCell id="59ba3HTT9blOdmE4UWJ2-2" value="" style="shape=image;verticalLabelPosition=bottom;labelBackgroundColor=#ffffff;verticalAlign=top;aspect=fixed;imageAspect=0;image=data:image/png,iVBORw0KGgoAAAANSUhEUgAAAoIAAAHjCAIAAAA40ukgAAAAAXNSR0IArs4c6QAAAARnQU1BAACxjwv8YQUAAAAJcEhZcwAADsMAAA7DAcdvqGQAAFxJSURBVHhe7b15kBzXgeb3MrOqTwB9otEHgG400LhIURSpY6SZHY0kipJIUbwJ3hQpkRKpYzSHN8bjiLHscIQ9jvWEHTv27vpYh71rEw0QlNZjx8bMxmr/2Eszokjwwo2+7/s+s6r8ff1SBRAEwe5GdVVW1veLF8XsQhPoyq56v/e900mlUkYIIYQQucAN/iuEEEKIrKM0HF7wm0FJJMzqKovvB48oyST/CI+Ow+K6JhYz8XjwaAuetH8khBAitEjDIcU6GGVlxczPm4UFlsVFlqUlutnKGJa1pbTUlJUFj+XlfISSPS+QsRBCiHAiDYcU/FpgWRR4d2qKZXrazMywwMqIxdAzTAzRosC4O3awVFSwVFayFBXxeRRpWAghQos0HC7SPc9zc/QuihUwyuwsczAKBIw0jHJ1p3RJSVC2b79Stm1jMrYF+TjdUy0xCyFESJCGwwUsa7ugh4ZMdzfLyEgQgvFHFitRa1OY2ObmNDBxaSlLdbXZuZNl166gwMo2PUPGQgghwoA0HC4QeRF/JyfNpUvm7bdZ+vr4JMIxIjLkCssWFwezsSBUPGkDtA3Ki4tBRzS+oaHBNDebvXtNa6s5cMDs308x29lb+B+FEEKEAWk4FFiJooyPM/6i9PQwCnd1Ucm2CxoR1nYvQ8ZWtHjGztVCQYC2MRrJ2PZXV1aamhqW+nqze7dpbOQ1AvH27eygTus8na2FEEJkH2k4x9jbPzFhxsbo4IEBxl8UxF87SIzkajuZ7RTo+Ct4as2atuB/X5tQbRJm9X+K2anUdlp1uqe6qCj4G6qq2DVdV8eealwjHEPJ+KvsgLEQQojsIw3nEnvv8Qjv2pHgzk7T0cFH5F07oAtrokw/66c8k/o4WTop4yRN/YkYMrT1Oh5hdKtn5ON9+1j27mU+RqmtDYaKNVoshBA5wfvpT38aXIrsAvsuLdGRU1MU8OXL5uJFzsyanWUOhjKbmkxLC8d3h5+kg5l9PxbHpFwzd2sy8enk3gHXDgOj4N/C32nBxfIyH1FWVoLn7WgxMrFisRBCZBOl4ZyBGz86ymFgPMLBKJcuUYcVFVwBvHMnx3THn/ah1c39hpiM1zqrU75J/GVsYoLTrW1/NaK27ZrGP2GncTU0BHO7UIQQQmQNaThn4MZDvR0dVxyMx927zSc+YW67zYwgAWeuo9hJmuafxZC5z583585xFbLd7gP2vf12lsOHOYRcXMxHIYQQWUNDgtkG9rX7U05NMQr39lLAQ0PBWiNEYahx5KlMOhjgb+t62G9pYfytqqJrV1c5B3tggD9AVxdHo3E9Ps4fbGmJU8OEEEJkAaXhbJNMBhtjwYJnzzKb4tHzgj2w9u0zxX/sJ7emZ5jd1L5J/A8xWN/uzAXd1tRwotbOnRyKRkEjIL33lsaJhRBiq5GGsw3Mh9xpCwRsTbx3r2lrMwcPmplv+8kt3luDMk4Y93+MIQTDx3aWluuaI0fMoUP8GexqYxRpWAghthp1SmcPu7EGtIcc3N9vLlwwg4OcNoUnEUCRRKdf2HIHg5RjkLaTP/SbmzlRKxbjz4Cfxy6XunyZ7YOJCXaS282r1U4TQoitQ2k4S8DBdoHQ3By3qDx92rzzDhWIGOp5jMJb1xf9UbgJU/XPYhCwHRWOx4ONPvDD2Fhsu6bLyrSqWAghtgqtG84S0PDS2p7PU1PmzBlq+M03abjdu80ttxjzo2w7GKRcs3h7sugLycY+Fw2C+Xn6+Px5Shc+RkB3HLoZYpaGhRBii1D9miWshqenua3V8DAHZQcH+WRtrVn6fg4cnAb/9OL3/NZWehethL4+bmfd28tHe7iT7ZrGjyqEECLjKA1nidXV4OzCjg5q2C5PQg7e+Wd+Kh58T85wzPLtyYZu7rqF7FtdzefQYkil+EOWlKx9z9pOW5q0JYQQmUVpOEvYdbrQ8Llz3K5y+3bumLFvn0mFY7uMlMtQfvvt5jOfYUCfm+PQ9fnzjMXj48FpxwrEQgiRcaThLQeZEgKDhicm2NOLNLywwG06Dh3ikHBmt+m4GfCTTH7bv+MOriFeXuamIl1d7KNGdkcDAj+znTWtKX1CCJFBpOGtBeqCwKamuHE0NDw9zZlQRUXczaroj9YObAgTKcdc/CYXMu3fz2XEZWUcHv67v2MyRo6HjBcX2Z5QLBZCiEwhDW8t0DDUBYGNjV3RcHGxcX7AaVkfe3Bh9sGPNPqUf+AANVxeztbDG28EGkZjAk0KaFiBWAghMoU0vLV8OA3jSx6fkPNpWR9NyjXTz/tHjwYatmm4qytIwysrSsNCCJExNFN6q7CREdm3ry84SWlmhgKrqGDQTP5Wcl3nB+cKxyx8Ill7yUX29X0efowEv7xMDaNhgWaEXUns6HxiIYS4ObSL1pZgpzKhjI1xp4633uI+kbAXZLZtm6n4z/xkiNNwGjdh/L+InTnDjuhYjAuWmpu5yAqlro6vBQXPCyGE2DTqlN5CoGEkyNFRRuGLF9kdjVjZ1mZSeaKupGdiP+E4cXk52xNvvsltONO905qrJYQQN480vCX4PhcHQ8DDwxwStntRITvW1JjhJ/wQzsz6KNBiOHjQtLbyAMSqKjYsRka4GefZs9z5Eg0LG/qFEEJsDml4S0BShHrhYHtaEXSF4Fhaapa+G6KFwusBLYaeR/39+3kUI0wcjzMWv/eeefddjnnPz/N1ycRCCLFppOEtIa3hwUHuQmV1VVJiwrZQeJ10P8LFxPX11DBezjvvsPT2XtGwEEKIzSENZxgbDZeXGYIhKkTGlRUOCe/Zw92pQj07+oaMPe23tTET79hB9c7OMhbjBaLgleL1CiGE2ATScCaxDoallpZoKbsZJJ7ZtYtbV6ZeyadR4WtIuWbhJU7XQibeto2vEbH48mVOPUPoX1gIvk0IIcSGkIYzzNUa7u5mWPR9quvgQZP7k5RuDph46nkfTQpoGC/KavjSJWp4cTH4HiGEEBtCGs4kkBOENDPDJT1TU9wza3mZQ8J1dezUzd8onAYvwf0RZ2w1NHAHj5ERNjUGB/l65+bY+Egkgu8UQgixHqThTGJnZkFOKLOzHBX2vLXj9L+TZxOkbwAyfc1/7iPcl5ezndHXRw3bdVkwMV6yEEKI9SMNZxJoGPaFg0dH6WN8icgIDefLfh3rAYE4GTfuT3y8rrSG8ZLthHC8ZCGEEOtHGs4ky8vsnu3vZzrEdVkZ9+vgrheR23g56ZnaWu6PHYvRvnjJnZ181QjEMHFi7WRiIYQQH4s0nBnsHOn0zCwERMfhBOl9+4z/PT/4pmiR+oF/5AhfIBJ/by9XEsPEePm4CdbEQgghPhZpOJOk1ykNDQXrlGCpKPVIXw1e1+HD3OcSDQ60PN5+mxoeH+dNWFmRhoUQYl1IwxkgmeQc6eVldslOTrJvdmqKk7Og4b17uc4nkqQcM/q0v2cP52otLnJ4GI2PgQH2BODla0MPIYRYD9JwBlhd5f4V09PUz8xMMD5q1ymd/2Y0e6QtMPH40z5eZm0tB8Ln5xmIEYsRjnE3hBBCfCzScAZAFL5aw7Oz1HBpqRl4LMoOtiRdE/uRX1PDTIz2x9UatuPlQgghboA0nAEgXRhobIw90vYwpaIiaimq3dHXEjeNjZwTDumOjHBfrf7+YP3S8jLbKEIIIT4KaTgDLC4GM7NGRzlfqb7e7N5tin5cKP5JeqatzRw9yrHweJz2xX3o7eV200NDbKAIIYT4KKThDGA13N0daLiujhp28nwH6Q3R9bDv/oTbTVsN42709DAWDw6yi14IIcRHIQ3fLKkUNTw+TvFAP64bpOE8PVp40yATl/6Bz674FAfI+/uZhgcGeO377KjXOLEQQnwYaXjzQC2JRHCcw8QEO2Cnp7mrFEIhNVyAt7aIXdO33caNw2Dfs2eDJdRTU4zIKysysRBCXIs0vHkgFavhhQVOzoJv4J54nGn40rcKcWISArH3Bz40XFERaLizM2id4BatrkrDQghxLdLw5rG7diDkIeoh8I2McDoSNNz3iF+wuoGJl1/2Kyt5Ty5f5kQtaHhigiPEy8vSsBBCXIs0vHngFWQ+2BeOcRxGwKoqs2OHMZE7yGFDpFyuX9q3j9OnS0p4f379a07XGh1lIE4k2HwRQghhkYY3D3Lw9DS3roSMAQRcXW3iP4zC8f43yezzPjR88KApLqZ933iD07XgY9wxO1dLsVgIISzS8OZZWmJf9NUaRhp2InqQw4ZIejzy4eo0DA3Dx/bIBzlYCCHSSMObZ3mZaXhobYeKoiLOzEIx0vAaA8d8pOHGRrZOXJdTtKDhzk6uJEarRecvCSGERRrePFdruLiYymloKMh1Stcj5ZjBJ/ymJg6Zx2LsOUAs7ujgSmLcNGlYCCEsksbmsZ3S0PD8fJCGqeGCHxhOkzJm7gXOmo7HubQaaVgaFkKIa5CGN0wqxXlGKEjDyMGTk/Qx0vDOnebCvTrH4AOkXNPcbG65hSchrq5yozF76sPsLG+aVhILIYQ0vGHsRF/kOathBGJcQMPdD2mO9LXghiy+6N95J/sJ0HDp7aWGEYtnZoINPbR4SQhR4EjDG8amYWg4vXEHLlIvysHXJ+mZuRf9+nret76+KxpeXFy7b0rDQojCRhreMMhw1r72aOF4nFHYKbCDHDYEM/F3/KoqTteCdycmuJtHdzcvYGIhhChkpOENs7y2eRYiHWQMtm9nMdLwDUl57JduaTGlpRxNf+89c+4cl1zjZkLMysRCiIJFGt4YEIbV8NgYNew4Zts2Ft3IG2N3uISGy8vZkQANnz8faFgIIQoZ2WPDLC5SJPZAe9flzlmVlYW+j/R66H+UO1zW1PAagRgOHhpiQYNmbo6HZAghRAEiDW8Ye8h/Xx817HlcilNdrV07Ph7coonn/IaGtT58Q/XCxJcv80xi3E/FYiFEYSJ7bJi0hmdmqGHEOwRiTZNeD7hLC9/x2Ydv2KWPKAwNd3fzfmqulhCiMJGGN0BqbamSPeR/YOBKGh54VD2q6yXlmbo6s2sX52rBxHBwR0dwPAYCse9rJbEQorCQhteLdbDV8MREsIdlPE4Nq0d6/bDb4If+7bebPXs4wa23l4G4r48jxHYxsfa5FEIUFBLIerHraiAJm4YHBzm6GYuZS/f5Wm6zIZJxU/L3/eZmaVgIIaTh9QEB+z57TeFgFORgOBjCcL+nzbM2Q9Izzg/98nLeQ9h3fJy7a6FlMzXFvaZti0cIIQoBaXhdwAr2PKWREQoYX5aVcQmsDvnfNKkYT304dIjjxGjfXLpk3n2X4RhWtiPEMrEQohCQhteF1fD0NDWMKAzgYJhYe1humpTL4eGDB3lAJO7txYvc0yOtYaRkaVgIUQhIw+sCSlhcpIaHh6lh1/3NHpa6fzfB4OP+gQPc5BL3c2jIdHayX3pykncY+ViDxEKIQkAaWRdWwxMT9ASiW3ExM1x1te7fTZFyzORzfksLj2reto03GQ2dvj5u6DE2xhsuhBCRRxpZFzCEXacEDUMPJSXUcE2NlirdLLiBU9/26+rYyQ9mZqhhxOLRUWlYCFEQSCPrIpmkFew6JVwgDTc0rO1hqWnSNw1MXPRjv6KCq7/m5zllGmnYHmBlJ2qhCCFEVJGGPwY4ADJI/Ga5sD0UqLSUaXj4mDbPyhBF5pZbOF1r2zYG4t5eDhVPTHCfMjR6NEgshIgw0vDHYNNYWsPQw9JS0CmtHulMwWXEv+9Dw+Xl1HBPzxUN427r8CUhRISRSW6EdfB10zA3z1KPdOaAiedf5KkPdpYWNDw+TiUjDa+uBt8jhBDRQxq+EXDwygr365iaooYRyzzPFBWZ5EtycOZJuexjaGkxjY1s93R2ml//mltdIhbjS23oIYSIJNLwjUC9j+wLDSOiWQ07DudnadeOLWL+Ba5famrirZaGhRCFgDR8I1D1Ww0jDdu5QjYN67ZtESnvA2n4jTd4DKI0LISIMPLJjUDVD/vCwaOj9DFycG2t2bFDt22rSDlm+AkevrRrFzcpc132Q3R1mXfe4cnEk5OBjOVjIURkkE9uhNUwan9oeGWFE6Shh8pKLRfeQlKuGXvat5uUlZZysjQCcbp3WplYCBExpOEbgUrfTpC2aRhWqKszFRXGSMNbCUyceNmHhouLOVnaatj2TuM3IhMLIaKENHwj0ml4bIzLZqBhpeHskIqZAwfM4cPMxLjzQ0NcxdTdTRkPD3O0Hr8aIYSIANLwjbAatmPD6U7pEW2etfWgoTP/ov/JT3LTUM9jS2hwkA4+c4Z7bOE3okAshIgG0vCNgIbTndLQsE3DKa1Wygop1ww95Tc2cq9peNdq+P33qeHpaaVhIUREkIavA5IWavlEgt2hSMOzsxyhxJfQ8M6d6pHOKovf9ffuNSi4+fPzXMXU08PjH4aG2DzCb0c+FkLkNdLw9bEOXl5mRT83RxPDzWVl5u271COdVVKeOXLEfPazXEwM4yIKd3dzCROSMfKxbR4JIUT+Ig1fB5uGoeGVFWoYIczOCVr4thycbVKOGXvGr/oz9k7j99LXxzSMTHz5cqBhpWEhRF4jDV8H1OxWwLAvAjG+9DwuntHdygkwcTJmyv7I37XLVFVRxmNj5sIFZuLh4SvHP+B5IYTIOySW6wDvLi2xfp+e5ubGEHBlJY/C1d3KIakic/So+dznuHQbv52zZ2ni7m6aGL8mmFi900KIfERiuQ4f1nBFBTWsyVk5JOWahe/5v/VbXMK0sMCVS+fPs4MaGrY7fqt3WgiRj0jD1wG5Kq1hXJeUmJqata2kpeGcgmZQ3zEfGt6+nV/Oz5uRkWDi9MQETYw2E35f6p0WQuQR0vB1uDoN4xo5eOdOalhpOAwsvegfPmzuuIOHE+PXhFh87hxnUE9OMiWvrCgWCyHyCWn4OqAeR7RKa7i8nOOR85omHQ6SMXPokLnzTm6lAg3DwSh9feyaloaFEHmHNHwdUI+jfoeDUVIppmFo2GjzrNDQ9bB/yy3BPpfj49zKY2CAJrYTp62J1TUthMgLpOHrkEgwDcPBCFi4Rhrm5lm6VWHi3L3+nj3cXau5mYP3o6PmzTdZOjv5W4OJfV+xWAiRB8gt1wHVt+2UTmsYaVgDw2Gj71HucwkNl5ZyJfHVGl5epoYViIUQ4UcavhbU3VBveooWvoSGT39FA8OhAw2jyWf9ffu4nGxhgdtb2pXEIyM08fw8MzF+leqgFkKEGWn4CqisUWWjIEihBoeJEarA0KNycEhJumbhRb+11bS0mN27GYvHx83p0+ZXv6KS7cnE+CVCxkIIEU6k4Q8AB6PKTu8mjRrccbRcONTAxEsv+c3N1HBJCTX89tsf0DCaU9KwECK0SMNXsGkYUdhqGA7GIzSsUeGQk/RM6gecsbV9O4cSzp5lIL50idOn073T+OWqa1oIEUKk4SsgM9kJ0qjKIePiYm7ZUVqqNJwHpGJm25/4R46wd7q+3hQVce70O++Yv/1b7nmJWGxljF+rEEKECmn4CldrGNclJUxXZWXBn4owk3JMMm6c3+eMLavhsTFq+Je/5OYeQ0Ocw6VBYiFECJGGr2A1DAdfk4bVKZ0vJD1jfuh/WMM2DUvDQogQ4qQ0YvYbYN++Pu5OPDDA/IS6GzL+9KfNuLaxzB+clKl/NdbVxdOIu7vZEX3ggGlrM0jJDQ0sdXUmFjPxOB8jjP1Y4w2MlgfK6mpQ8IwtdjYiil0dkC52EN0W4LqcHoHHdPE83jp7D1HQ4rEXKPgj+/2c2CiEWB/S8BUmJrj29PJlahjhaW6ONUv1n/nJePANIl9wfeP8ZezSJU6chidsx8ahQyz797OHw5aokvaonWaIx4UFvqXxaJfh4RHPp91si7VyWsz2b4BuIde0elFKSng/8VhWxiX16YIvcavtN0PGQoh1Ig1fYXSUk2zPnGEUBmjRo3Lx/sBnV6fIN9yEcf8y1tnJXg3bsfGZz7Bv4/bbqeTt2/kYVfCZtiqFd22xO7PiEY1LFCh5cZEytla2xU5hQ0nLGH9POulCsbbgQ7FtGx8rK1mqqoILFLRs7DdLw0KsH2n4CrDv6dMsuEBFg5q6psbMvOBrN+k8BZm4+H+OdXezdxoG2rMnKI2NQbFegTbyrhMVmkwrM/0MnJqWqy1pDdsojMd0CLaitSWtbVzYa/sI0h3R6a7pdDi2mRgFHxb7ebEXKDYc4xF/av8XPAohros0fIW+PvN3f8cCDTc0cMItaureR3xN0cpfnKTZ8U9jly+bwcHAMZDuoUPm8GE+Wnmg5JeG8SrgURgXZsWFBX4dH2eZmLiSfe334NE6G+Vqj9omiC24trJESd8Ne8dsSVvf5mY84kuoGs/gf7c91QjEtbUsO3fyGEoUPGPbOvjnhBDXRRq+AjLTv/23LCMjV+b1vPNVzc/Kb2Dibf9r7OJF09PDXzFE9ZnPBKWmhs7AY35lNXxkkXRh2ZkZKtaCi95eNiXtgY8oeBvjSVvS9i0tDdJqOrmmU2y6SxnKhImtjOFamB6PVud4hOAnJ/mIf312lo+Qsf3Lq6u5l9mePTxvY/9+FjRkYWj8zZC0EOK6SMOs1OxjR4f5N/+GBfXXJz/JMvaMonAUcBOm9H+hiS9doqVaW9nAwiPiWn09S1kZVYECl6QNlHNs1kSBCG0GtTEUBTqE/1DgYwv+aGzsShq2krY9z3hEHoUI8XjNvCpb0h3IcPA3Pn/SMVfqBFz99d8+Bg3Dwbaj2/7l9u+3GrbJGAU3sKqKMrZpGDcWF7a/AZq3Nxn/inV2fjV9hNg6pGEKGFUVCurov/kb86/+Feuyz3/e7PlzzZGODsjEFf97DC0tREZY1va+NjUFpa6OwkCBq+wfhcHE1rsosF1afra3Gc/Mz7NAgRb7NrbexbX9WMO7tsMZ/oMFX3n6rzw36XlJ1025TtJxUkHBt/LxxlUB6gr76CRRki6Kn3D/0f99v/1JUGwPOb4NlkWkxj+NfxdWRqmp4U1Gqa3lz2OLEAJIw0HlhXL+vPmX/5IFeeIrXzHN/8BPakArQjgp09jOJcXd3eygRmluZtm7NwjHeISr4A/bK5tzbCcwyugoO5mHhq4UmNjG0/TYMJy3Y8eVSeBXl0fuOum6SRev/2NEu0lSKff//ffHbBC3j5OTQaMBHy47SNzYGHRTt7QEbQI8CiGA99Of/jS4LFQgYEQKVGqo3S5e5LphfHnwoNl+Nxr9wfeIKOCYuVuS+4YR4xgx8Ru3A5a4wHvADoLieVyn0zAes+Zj+zPgB5ibo8ag3oEBdqHbIW2E+P5+Pgm3Qcz4Zps17bAuCnRr46adXYhHmO+Jr5+4te1dJGBE3uCf2QLwlx/a+94nD50Znb3Vdn3jZ8M9XPsjXuOnxb3Fbbe96yho/KOtg2eA/U4hChalYUaK2VnWfRcumH/37zhFC/Xy3Xebqv9SA8MRBL9SZ20hEww3M0Or4bGyMpiutWcPMzFKRQX9kdbJVoNPofUT3o0jI0FBsrThEm9I+6eed2WIF+otLzffe/z/sX8DXBiLJWFcG3zXepvXLJddkIyTKTeRcP+Pf/Ew7u3UVNCjjh8ePzMKmgvIxK2tfLTPoISh70GIXCENU8Co6VAuXTJvvMGCUPLVr5rSP5WGIwvCISTl/0Xsvfe4YQtcW7K2BPbIEXPnneaOO9iPap9BaMsCyIV2eBXSwvvQFjvhGQXYNgHC7u7dLAi7z91/0vMSHzegm0twjxMJ7y//+aNo4CLQ2xleALcX5VOfCjb9QFEgFoWMOqUZNSYnOcsU9d3oKK8RONraTOoLOQgTIktAX67xPpN03nCRhtEWRdsL7wSorrSUcRNfIsDZnmo82sYqHm+mmxr/OwqMi79wZYVOWlhgKxA/AFqBiL9DQ1zf3NXFjujeXj6JHAk3oymA4IscWV/PkezmZvPct06sOTjU4MdDNL/z1vPvXTpqbybuMNoZeC12Khyewd3A/UwkeGfwjGKxKECUhtnvh6a6nbZjl12iLr79H/mp8uAbRFRhJl41y38Rw3sAzS8UOBjhrKqKfdR27jSuKyqoQMjDRlJvs5ubWgFDOXAS5Go3lYSWoGH7aHvI7bQslPRHc/t2/gz4wX74zM+L4r7nJnLS4bxZHD/h/dPXH0Ujw7Z0y9bmZ+GxqYnJvrGRwwHV1bzVdvq0ZCwKCmk4mJmFMjAQrAZBhdv8535SGw4UBpDx3lMxOxMKv30YEYKEd/fsCSRhZzxBErabetMrbayAkYNhXzvoOzYWDAPbuVf2X7eDvni0DQIUKOqRu04gWYa5C/pjSSRi/9vrj6KZa18ySksLh+HxiHyPu42gDz3fTH+DEPmIOqVZ9/X3B32AaJMg7qDWK/5iUltJFwqOmT6abBvl73t1lQ6GHZeWaE0oEwURFsXO8sUjin0S6db2poL0Iwqet8HXfjP+L0RbqBfvNKtehEK85WxB429wkM/Y2Uz4TjgY6t21i2ERfnrmvvZPHHiXs674L+QxaEZ86uiZgYlb7TAQXrXr8kbhZgJ87tDEsTdQm3uIgkJpmENxb75p3nqLAcXO26yrM6uv+ElVBAWGmzA1/1cMRhwaohGtbmOxYBMo2y1sC7KyLUjGNh/bcU08Qsy24P9NZ1/8bSi229nqFk+iQPb4v/ARxP9Y/JuTEuw/8dz9p9j5nOcJ+MOkUm773xzrWVu3jftjS2NjsIbbrrZCEwQfQ6BYLAoBaZhTUn/5SxbUj3arAaSQ4Sc1TbpAcZJc0ZT8h7HOToOCd4X9iECQdrQY7xCowtoCerYFHrUZDiEY6oXCkWvt6K+dfmXL6CgLNGyTNCJg7W/OQrB/56NfPeGYrV3mGwaSSW81Efvzf/zQhQscD6qupolRDhwIDt5AQ0S906JAKPROadSwqBZh4vPnWWmiOkB7HGW0TdOkCxXETwj1s0nvDRfiHB9nhB0bYz+qXXJj+6vhUbx5kORsz7OdVLW4yG+2xfY/4901MMAhD7sFhy34a6Fn2Bratv3Pe/ZwKe1DX3p1bb1v8INEGK5y9hKfvf3SL/79ka6uoOMB9wRNGTsojgaK7SRAESLaFG4axutGQWV65oz5xS/Mv/7XrF7tiQ6jTysKFzqcRO0b/79nHzWcOjNDT8TW9kkuLubwrS34smhte2TYAvrEIwyNQIxHq2cUvK+gZ0gaFzYr4zvx/5at7WVRt7ad9ZP3nPTcBN6VwT9fGCAT/+P2x86eDfrn0aaprw/2vGxqCvoecKOAYrGIMIWrYQjYlnfeMX/91zzUATXmb/+2afyvtZW0CLC7fBjfeP8kBhnDFjby2vSGR9uSQ+E3r6nCNu9QoGRkOxSraijcrtKBVxD4Xjr2M8TBtW0mo98FfQNSKXfVj/3Df/awXTRYUsJ2ya5dHCdua2OpqeG34d7KxCKqFK6GbWpBOX06ONEBd+KrXzX10LD6wcQHgSgP/BWTsR3fHV/bZjLdTY0Yl7avFQYcjNAM6UK9FRXBuqPaWgoG5b7fac+rhb9bjp+I/fk/efTNN3knYWLcutZWbrOF0tjIFozmTosIU7gaxgfedhW++y7PGP7FL/hph4YrfqoeaXEdGFlTpuXnsZkZTiOws53TsRhcrWEUG4JhFJgY8Rch+Ml7XmP8jdzk50zgnPrF4x0dwRg8CkLw4cOcrrVnT7By2vZOCxE9ClfDqEPtVJozZ8x//I/mP/wHNsOh4eL/1FcdKW7AXW/Hbt193KTWupLXmmyQ79qfXM3aH6z94doFHvW2+hhSKff//KtjZ88aFLSJ9+4Ndu5saWGprQ2+TYiIUbgdPf7aDrdINvAxrvGxh4aLfiAHi4/h8J4TcKrjJF0UN4Hiuf6HCp93HZS10V85eB3gRj1733HkYHweEYt7erh+4eJF7m2ysMABeNvfIETEKFwNr67tlzQxwUfH4ZzVqirjaHKWELnDcVK//9ypO+7gUVeVlbRvf7/p6DDnzlHJg4N8RoiIUdAaRg6enPyghje7a78QIiPE46t/9uPXoGF8JPEJhYY7O6nhCxe4uxmeUSAWEaPQNYw0jEdo2E5nLeD7IUQocEwqHlv94dMnkYbx2RwY+EAaxjNAJhZRoqDHhhcWgjTsutw3WBoWIiR4bmLfPnPbbebgQc6RxucUMkYs7u5mPkbreXEx+E4h8h11SlPGtlMarW+dqiREOEg98832/+qPT916K3uqpqfp4K4ulp4eLtqWhkVkKOg0DA1PTfERadiODWvFsBAhwXGSRfGVP3z+JD6bMzMUsD1sAxoeG5OGRXQoRA3bZQ8rK8zBVsNIw9u3m877/eA7hBDhwPMS9tyL3bu5l9bICAeJu7s5TmyXOeCDLEReU3Aatg5OJoNOaWjYdkpv26aBYSFCSOqlR0/efru59Va2lcfHubnH5cumr4/riaenuZmoEHlNoadhfIythvse0sYdQoQRz/N//MwJaBhtZSTgc+eo4d7eQMPLy8G3CZGnFJyG7Ql0djt+FFxDyTzcVFFYiLDiuonnHzjR1MTzl5CJ8cnt7zfvv8/eaYgZTWrfD865EiLvKEQN4zM8P88pHvjoAs/j/vtCiDADE7e0BOc9FBWxU/pXvwr29MBnGSbGRxtNaiHyjoLTMNSLKDw3x4+ujcKxmCl6JaE50kKEnIe/cvzIEa4khoYHBgINDw/zE201LEQ+UogahoBnZvgIB5eU8Bw6x1MrWoiw45jUQ18+vm8fT1sqLqZ6p6c5d7q7m4dAz2ufS5GfFJyGr961w/O4XLiiQltJC5Ef0MRfOm5PP8RjPM40fPo01xNPTKhfWuQlhathpGG7hyVMbKRhIfIEx0m98NBJZGJoOBZjGk5r2M7SkolFflHQadhunkUNF9xtECKP8VwfaXj/fjaj0Z62u3mMjQXrD1dWZGKRTxR6Grad0kbzs4TIKx7+yvE//u5r9fUcJIZ68YkeGqKPh4c5AVPTtUQeUXAaRksZGrabZ6U7pTVNWoj8wjGpmLf6w2deh4Ztwxoa7ukJNKw1xCKPUBpe65SWhoXIQ+Ixv6KCix3QvB4f52GIAwP8dC8vMxBLxiIv0NgwO6WVhoXIR1w32dpqPvUpLmHC59ruczk4yEFifAk3y8Qi/BSWhlNrW0lfk4Yv3quDlYTISxyTeu7+9ttvN9XVbFinNWxHnaRhkRcUioYhYFtsGsanFBq264a1m7QQ+YvrJJ+57zjScCJBAaMMDXEVk/2MS8Mi/BSQhvEp9X0OGi0tsaWM63jcXL5PUViI/AaZ+KXHTjU2mr17OXF6fNy8+y73uYSMEYiFCDmFomE0iqFhRGF8LNFGthqOxTQ5S4goEIv5aQ1PTPDwpbSG0QQXIswUUBqGd62GEYhhYlg5/rJOdBAiCrhOEhpubjZlZeyOtoPE0LD9pKMVLhmL0FIoGoaA8YGcmaGDXZfnh6PoRAchIsOjd7UfOmR2715b+5Di6uHhYW5y2dsbnEksRDgpRA17Hh1cXq4THYSIDo6TfOIbx6Fh7gRgqGGk4Y4OanhykjWAEOGkUDTs+xwPTqdhOBilYF69EAWBY1LP3ndi+3Zep9NwT4/SsAg1BZSGoeHpaV7E46aycq3JLA0LES1cN7lvn7ntNtPUxCHhri5z6VKwocfSEj/+WsIkwkbBaRiNYmi4okIaFiKSpL59/4lPfpKDxFbD6X21FhelYRFGClTDNg1rmrQQ0cN1E995mIPEMG5PDzU8MBBoGB9/aViEjQLSMD6E16ZhaViIKOKY1PMPvrZrl6mv5yyQ5WXT3x8MEuNaiFBRWGl4ZkZpWIiCIOYlmprMvn2mpoYf/95eTtcaHZWGRegoxE7pWIwa7n9Y21gKEVkcJ/nyk6daWnj4ktVwR4cZG+NELSFCRSGm4aKitQX+hfLShShQ4p5/4IBpaGDLe2KCE7WgYVQCmqslQkVhjQ3jE4gL2ymtHmkhog0C8TPfbN+925SUmNlZ7uYBGU+vHUWMTJxIBN8mRG4pFA3b7TvwCbQafvcu9UgLEX1g4qfuPVFUxCY4NDw+zkpgbo4jxNKwCAnR13Bq7ZhhaHhl7WwlXMw/6ysKC1EguE6ispLjUMXFrAEGBzllemyM1zrvQYSBiGvYOjiZDI5XQhMY144cLEQh8fITr+/bZ3btYj3Q3W3OnOFKYmRiWz9IxiK3FISGUexhw1bDWi4sREERi/ktLVxDjHqgq8ucPctlxGkNC5FbIq5hSNfaF61gm4NdvGJpWIhCwnOTzc2cMu15PG2pr4+nPkxMcN6WHagSIodEWcNo58LBS0ts9uICAi4t5fiQNCxEgZG6/4vHGxu5oxYC8cwM52oNDbFrempKG3qIHBPxNIx2LjSMNu/KCqOwNCxEYeKY1CNfaYeG0SKfnuYULWgYBRrWhh4it0Q/DdtdO3DheaasjCYWQhQgjpP80bP/Yvt2LllcXGS/dHc3fYwqQoPEIodEXMMIwfPzHA1CgxcaxicQJlYaFqIwKS5aPXjQtLZyK72REXP+PPulZ2fZU51MysQiN0S8UxoanpujhpeXOTa8bRs1rEXDQhQmMS/R1mb27+fgFDR84QI1PDMjDYtcEv00nNaw0rAQBQ63t7yvvbmZg1OoGfr7KeOpKV7b9RRCZJ+C6JS2kyGvaFgIUai4TvLpb56ormZVgDphYYGDxF1dPAMR10Jkn+h3StuxYVykNaxOaSEKGc9NQMPl5Vw9gfphaIgaRizGtRDZp1CmaNk0vG2b6X9IHU9CFDovPHRqxw6evISaATnYpmHUFag0NEIsskzBjQ3rmGEhRMxLtLaaAwfYPTY9bS5d4jixHb3yfc7YEiJrRL9T+hoNa36WEMJ1qeG2NnZNw77Q8MBAUFGsrq7tPC9Etoh4GsaHynZKp9cNa2BYCAEe/L3jSMPQ8MyM6ejgAYioKBYX2XZHGlbXtMga0dQwPkJoz+KzZMeG07to6bR/IcRvSN33O+01Naa6mqcR+z6Hhy9epI9RY0jDImtEVsMo0LBNw9PT9HEspigshLiC4yS//8Tr0PCOHawuoGG7ocfsrDQsskcENWwdjDSMAg0vLFDDSMNLzykKCyE+QNxLIBAjDac1jDQsDYtsEk0N2xMd7MFK+DIeZ3G84BuEEMLiuom9ezlXC4EYlUZ395VjlzRILLJDNDWMz4/VMNIwKC7W+YZCiOvgOKnnHzhx6BADMdRrNTw5yQrEaliIrSbKaXhm5oMajuY4uBDipkAgfuHB9spKTpPu6go0bKdM+77SsNhyoqlh2HduLhgSjsfZ3aQTHYQQH4XjJH/w9M+rqpiJHYcdaQMDZnw82FdLiC2lIDSMT1d5uTQshPhI4jG/rs40NLDnDPbt7uaRD6hG1C8ttpoIajiZZG8SPj9TU9RwUZGprORu0lqtJIT4KDwvYTWMGgO1R08PD3vAhXbUEltNlNNwWsNKw0KIG+M6ycZG09rKvfaWlkxfHzU8O8vhYZhYXdNi64h4pzQ+QlbDSMNCCHEDjn2t/eBBdp6trJjeXnZKz8xc0bBMLLaIKHdK27HhdBpWp7QQ4gYgED91z3FUF6hA0mkYdYjSsNhSCqJTGs3bwUe0hZYQ4mNwnNRzD7yOSiORYNc0NDwxwUyMaw0Siy2iUMaGdcywEGI9eG5ixw6uXHJdari/P4jFmjIttohodkpDw/jYpDulkYY1P0sIsR5cN5nWMFrz0PDwsDQstpBIadhOo8CnBRq25xviGhru+JavgWEhxHpwnVR1tamvDxYQ9/TwsAfbprc1jBCZJToaxscDOdj3WaDhxUXuZ4lnSkrUIy2EWD+pbz/wml25BA13dtLEExOsVdCsl4lFxolaGsbnBI1WfGDgYBQ8s6jzDYUQG8Fz/X37gjOXOjq4eMlqGM16TdQSGSdSaRg52Dp4ZYUXKI4TsZaGEGLLcZzUQ186Dg2jWT82xjI5yeFhWBm1ikwsMkt0HIXPBuw7P89ZFVbAJSUs0rAQYqPwAMQHT23bxsklaN9PT/Owh/SGHkJkkEilYWgYzVU0WnHhunSwjhkWQmwOz0uWl39Aw0ND1DBa+UJkkGimYXxsPM+Ulq6lYWlYCLFxXIcrl7ZvZ9caGvf9/dSwnTItRAaJlIaX13btwAcGGkYOrqjgMcNaqiSE2ASOk6yvN21tpraW6u3tvTJlGrVNSlOmRYaIoIbtcuG0hpWGhRCb4+lvnjxwgBpGyx4aRhkf15RpkWGimYbtrh2BhoUQYlN4bmL/flNTwyplYID90kjDi4u0sg3EQtw8UZuildawTcOlpeqUFkJsmtS9XziONFxezukmqGFmZjhfemREc7VExohaGp6fD8aGkYZ37FAaFkLcJKmn7j25bVug4elpatjuMi0Ni4wQ2U5pm4aHH9MSPyHETeG5CaVhsXVEXMOanyWEuEkcJ1VXZ1pbDR5Rz/T3m+7uYK6W5kuLmyfKGq6s1KEOQogM8MJDr+3fb3btCuZqQcNjY2ZpSQ4WGSCCGr56wZLmZwkhbh7PTSAN79z5gTQMDQMFYnGTREHD9mNgNTw/z4LrkhJz7hsaGBZCZADHST7+9Xak4dJSzgC1zf2pKc7YWlxku1+ITRORNAwN45OQ3szSpmFFYSFEpnCd5LcfeK28nLUNcvDsLI9dQkGdo7la4mbIew2nozDUizS8sBCk4aknFYWFEJnEcxNlZaxekIDR3LcaRp2DfCzEpomChvEZQA6Gg9EmxSfEcUwsFpmcL4QIC46TrK42DQ2mqopVzfg4p2tNTbHyEWLT5L2s8GGAfZeWgh3mrIOLirRUSQiReV589FRLi2ls5DJiaLivLzjsQYhNE4U0bDWMkkhQw/H4moaVhoUQmSbmJaBhBGJoeGyMGp6clIbFTRGRNIwojIJrOLi8nNOktYJACJFxXDexd6+pr2dVMz3N7bSmpoKuONQ/SAVCbJQoaNhOkF5Y4GcAAt6+nYsK1CkthNgK7v3Cq3V11PDcHAMxZIzKB7WQNbEQGyUKGrYTpNMa3rFjTcNCCLE1PPDF9ms0vLpKDSsNi00QtTQMAduDlbRoWAixRThOsrycmxOApSX2S8PHs7Osi4TYKBHRMBy8uMgvrYaVhoUQW8r3jv1s1y5TW8vW/8iI6ew0o6OsiITYKBHplLZpGJSUcCvpqae0nF4IsYV4XqK+3tTUsAoaHg40bMOAEBsiOmk43SnN8w3z/mUJIUKN5yUbGnjYA4CAoWFkYruFHyoiDRKL9RPNTmlpWAixpbhOoqmJK5dclwPD0DAy8dwcJ2olEtKw2AAR1LDONxRCZIFv/e7xtIa7upiG7WHnNhALsU4i1SkN7IIlaVgIsdU4JvXwV04UFTEDTExwO63paZoYXyITC7FOIqJhO0UL10jDF+7VJ0AIkQ1cJ1lZaaqr2fpHDh4dNR0dwSCxEOskap3S3MZSUVgIkSVS33v8Z1bDSMBXz9USYp1EqlM6lTJ9DyoKCyGyRzyWqK0Njj4cGwvSsB0jE2I9REHD9oSl4JATRWEhRBaxhz00N3NTrYkJanhoSHO1xAbIbw3jLX6NhtUjLYTIJq6ThINbWjgiNjVlLl/myiVpWKyfPNawfX/jje77dPCK3c1VGhZCZJd7v/AqAjE0PD1tursDDdsFxKighLgx+arhq0MwrmMxHvWPRyGEyD7f/O32qipuWlBeTgGPj3Ml8ego52opEIsbk8caxnsdGkYIxrscAi4u5gmgQgiRfRwn+cpTP4eGy8quaNhOmZaGxY2JQhpOaxiPGhsWQuSEeMyXhsUmyFcNJxJ08NxcsGsHHIx3vz3+Uwghso/nJnfvNvv2cROh6Wlz8aIZHDQzM6ygZGJxA/Jbw7OzbGxaDadP4RZCiOzjrml4/35GAtj3Gg3LxOKjyGMNLy8zDac1vG2bmX9We3cIIXJF6tjd7a2tV9LwwACjgtKwuDGRSsN5+2qEEFHAcZKP3X2ispI1EtS7uMjzHoaG+GiHz4T4MHmvYQRiaVgIERJcJ1FVxc65oiJOI4WA+/q0cknciDzWMFqaMzMfTMOaJi2EyDXP3X8K1RE0vLJCDff2cq9pGxiE+DD5qmG0K/GehoxRcO262rtDCBEKHCeF6giVEqomBGIEhuXloKYS4sOoG1cIIYTIGdKwEEIIkTPyVcPJ6+2ipS20hBA5x3GSlZVm504e9oAKamSEJy8tLmpsWFyfPJ6idZ0FS9KwECLXuE6yqcm0tbFSmpszly6Z/n6uJJaGxXWJiIbR6ty2LfgjIYTIIY6Tev6Bk9AwKiXUURcvBhrWLC1xXSKVhtUpLYQIA66XaG7muYeoncbHuWzJrq5cXuZommQsriY6Gn7vq9rJUggRChyT+uZvH6+u5saWjkP7orIaHaWPNUgsriEvNYy2ZFrDCwv8UvOzhBAhI/X8g6eshldWmIbHxoK5Wqi+hEiTZxqGcdGQRPF9NjARhfGexpP9DykKCyHCheclKirM9u00MQLD8DA7qG0HnhBp8k/DaEjCwWhdQsMouMBbXHOkhRBhw3VSDQ3mwAFTVcWaqq+PxzwgFisNi6vJSw2vrgYaXlriNTSsHmkhRNhwnCQ03NZmKitZZfX2BhpGkBAiTZ5pON0dbXMwriFmz1MaFkKEkYe+xBOIkYZRWcHBIyOc0YLwgKoMdZcQIM80jLfyNTOzysr4KIQQIQSB+PGvtSMNOw5z8PQ0q6+5OU5qsTIWIs80nFg73/BqDZeXc+8OdUoLIcIJTPzMt05Bw6i4rIbn54MBNQViAfIyDaNRaTUMASMNe9/XSIsQIrx4bsLzGCGQg6Fh1GB2Kw+lYQHyNQ3jESAK79iB9/janwkhRChxnVRtrdm9m9tbIkJ0dZmeHm7lsbISfIMoZPIvDUPANg0DRGGuyZOGhRAhxnGSNTVXNNzdTQ1PTLBfWog87pR2nEDD+fYihBAFxzP3vdbUdCUNw8TQsNKwAHnfKU0Na36WECLceC4Pe6iq4njw6Giwo5ZNFJCxBokLmXxNw9Cw0rAQIl+wK5fSGh4akoZFQP5p2KZh2ylt07BWKwkhwg9M/Nz9p67RMCo0abjAyctOafveBcFMaSGEyAdcN1FdbXbu5AGIqMT6+oK5WsvLwTeIAiRfO6WvnqKlNCyEyAtcJ1lbaxobmR+g4d5eTtdCLJaGC5l87ZROp+H379beHUKI/MBxUt879jo0jPyARIEoDA2PjUnDBU1+aDi1dsywPVsJ7127AY3rMg0rCgsh8oh4zN+3z9TVsQZDDh4cpIY1V6uQyUsN2/cr3sRd31IUFkLkE66b+P7jJxsaTCzGjbSGhqhhXMzNsXLzVaUVHvmnYeTgtIZTedanLoQQxnP9lx47BQ1PTXEBMTSMC6th1HKi0MgPj8HB8O7iYtBahJXh4Hg8+FMhhMgvPDdRWckRYs9jrhgc5HQtZGINEhcg+aFhO0E63VpEK7K4mEUDw0KIfMR1kzt3mj17TE0NM0ZPj7l4kR3UULIoNPJJw3aCNJKx1bDONxRC5C2p7z5yavduU13NsTZEYWh4eDhYAyIKivzTMCgtZdHBSkKI/MXz/OZmU1/PfunJSTMwEEyZRi0HMWvKdOGQNxpeWOAbFDJ23WAPSyc/fnYhhLgOrpN84cETCMRlZRwSholtmZrimkyYWBQIeaNhtBCnpwMNb9tGDeu0fyFEXuO6iRcePIlckdbwxIQ0XHDkh4bxjrRpGDJ2nN9oWPOzhBB5jutxyjQCMQIG6rfxcY4Qo65b0VHEBUM+peF0pzQ0jJInP7sQQnwkjkm98tTrLS1m925OPh0bM52dZmREU6YLiHzVMNKwVisJISJAPOZDw01NnKtlNTw6yhpPFAj5nIalYSFE/uO5yeZmarioiAPDfX3smp6fZ72XSHC3IhFt8mZsGBq+doqWNCyEiAKpB3/veGMj14CgrkNFZ4udDaO5WpEnL9Mw3qx9D/lqIwohooHjpB75SntZGaWLQIyS1jBqPxFt8knDs7PUsJ0prUMdhBBRwnGS3zv2c9RvqOXm5rh4aXyclZ6mTEeesNsslWKxndJXp2HNzxJCRIxYPNHUZBobed3fb959l5tcot4T0SbUGrZzE/CYTsP2tP/L96mbRggRNWJuYvfuQMMDA+a996ThgiDsaTiZZLFpeG6OGvY8Tc4SQkQQ103aNOw43MTj7FnOmp6eZh1o+wVFJAm1hhGC4d35efZFJxJ8a8bjnNOvHmkhRBRJPfzldgTiigpWdwsLnKsFH9slTIgiIpKEXcN2toLVsOtylxmdbyiEiCqOkzz2tfYdO6hhJJDJSe6oZTUMKysQR5J80jDel9CwDlYSQkQY10l+/4mfI3XAu9CwTcMTE9reMrKEXcNXT5Devp1LlXTMsBAi2hTFub3lgQM8WB05+P33TXc3lYwq0Y4TiygRag2vrh2sND0dzMyyGg73jyyEEDeL5yZaW83hwzx5CRp+5x3T1SUNR5Z80jAcLA0LISKP4ySff/DEoUPU8NgYFxAjDU9MUMOJhEwcNfJAwzMzH0zDmiYthIg6rsOtPGprWe/F4xyYGxkxly6ZwUHuoAATi8iQZ53S5eXSsBCiILjrzlfr6mjiigrmYGj4zBnT08NVTNJwlAi7hhfXDlaCht3fnG+oRcNCiALhmftO1tSYykpqeGiIG3r09krDUSPUGsY77zpTtKRhIURh4LmJPXtMWxtrP1SGly9Tw6OjHKpDREFQ0SBxBMiPseGVFa4YthpWGhZCFAiOk/rOwyduvdUgEy8tcb40NIxYPDER7LGvWBwB8qZTGml4xw4eMxz8mRBCFAAIxN99uB0aRhrp7ORWHsPDXLxk99hXGo4A+ZGG053SOmZYCFFoOE7ylad+VlnJ7sBEglG4o4MnIU5NBf3SknFeE1Kt2TeW1fDVU7TUIy2EKEDiMe6rdeQI0wjs++675uJFzp22/dIycV4TRg3b9xMeV1Y+MEXr4r3qkRZCFCKem9i7l/tq7djBKvH996/VsMhfQqrhRIIFaXhpicPDuI7HNUdaCFGwpJ6+l/tq1dayhhweZhkb4yCx5mrlO2HUMN5P/tpJw0jDuEBxHOO85KtHWghRsLhu4tsPtDc0MBC7LiPKxEQwY2tmhvWkyFNCp2EbhZGDrYZxgS+BDlYSQhQ4rpN88dHXtm+/ouH+fq5fkobzmjCmYXjXjgrjEckYbzj2SIfxJxVCiKwS8xI7d5rqam6lMDfHNDwwwElbtrbUIHE+Eka5IQEvLvIdhvYdBIymX3m5TvsXQgguXmppMbffbpqaKN2eHpaxMeYWVJjIMDJx3hHGTmm8maDh2VleoMW3YwdP+9L8LCGEAI985fhtt5nGxkDD3d2BhhFgFIjzkZCm4aWlQMPpNKxOaSGEAI6TevjLr9bXcxnn1BQdPDHBVUzz85xSYyfTiDwijHKzaTjdKY00rBMdhBDiah7/Gg9f2rnTFBcztHR2cmut0VGaWOQXYeyUviYNV1QwDWu1khBCpHHdRG0tlxGnNYyCZCwN5x3hTcNWw0VFTMM67V8IIa5m7fClU7t2cerM/DxHiLu6mIZReSaTGiTOJ0Kahq+ZosVOaSGEEFcRi/kHDhg7SDw+zsVLg4PczQPXEDPqT5EXhDENX61hOzasTmkhhLgG10k+d387NOy6VG9//xUNz82xIhV5QRjTcLpTGm8jq2EdMyyEEB+GJv7WyViMk6XhYJShIY4QS8N5REjT8DVTtHTMsBBCXBfXTTY1mYMH2TuNyvPSJfPee6a3lztcJhIaJM4Dwui3dBpOd0prfpYQQlwXx0m+/OSptjbT0EANd3byGERoGFWoNJwXhLFTGu+ktIaLisz5e3y9i4QQ4qOIez7S8K5d3Fk6nYZtFSoNh5+QpuGlJc70Q1MuFtPkLCGEuBEIxI9/vX3PHu7msX07vuSmWl1d5sIFDhUvLATfJsJJGNMwNLy8HGh4+ilNzhJCiI9hbdb0ifp6U1MTbOjR0WHOnuX06bk5BeJQEy4N472S1jBacNwcVVFYCCHWgecmfvzcz6qrOZY3M8NB4jNnAg0DmTi0hEjDySS9CwfbaQUoRBoWQoj1URRfbWszzc2mtJSnPvT0cAnT2Bj7qBcXtYQppIRFw2ipWQ3jjYJHfOk4XJMuhBBinSAQ//5zJw8d4gjx/LwZGODY8MgIVxUjE6+sBN8mQkW40jCi8LUaVhoWQoh147n+9x47sWMHNdzfH2h4fJyjxUrD4SREaRhvETtBGhcQcGkpJxoIIYTYEK6bqKvj+qWqKqaa0VGOE0PGdq4WiggVIdLwygodPD1NDcdi7FSBiZWGhRBio7z02GuHDnFrLdSiEPCZMzz4YWaGnY4ycdgInYbxRoGGPS/QsBYNCyHERvE8//BhAxOjFh0bk4ZDTbg0PDfHNIwLpWEhhNg0jkkdu7u9uZmbAfu+mZzk8DB8jDI7yxWhIjyEsVMaF+k0LIQQYhM4TvKxr7ZXV/OgWNflTgzDw9zTA4+oaUV4CIuGk0k20JCGp6Y+mIaFEEJsCpj4xcdetxqGeoeGzOXLfLRztURICGkaTmtYY8NCCLFpYp5fV8cdLsHYGA9+GBhgH/XSEmvaRGLtm0ROCePYsJ0pvWOHGXxEG0oLIcTm8dxka6s5coTBZnaWGu7u5tZadkOP5WXF4twTxjScXrAUmp9OCCHylNSxu4/bfbWg4YsXqeGhoWBDD9S60nDOCW+nNNKweqSFEOImcZzUQ186XlXF65kZ5mBouLeXfdQIxHYJk8ghIdKwnaKVnim9bZtWKwkhREZIvXTs1L59pq2N5y8ND5s33uBpxCMjrG9hYhSRK8Kbhs/f46uJJoQQGSHu+S0t1HBxMTX8q1+xg3p0NNAwamBl4lwRCg3j128XLKXHhpGG1SMthBCZwnGS33n45IED7GicnTXnz3OQGD7G9cICa11pOFfkWMP4xScSLHgTQMNLSzwUE0pefE5zpIUQIpN4rv/SYyebmkxtramoYA4eHDTvvMPp02NjMnHOyH0ahnR9n28IFDgYJuYoRVg6y4UQIjrAxD985vWdO6lheHdgwLz9NjU8OsovgUycfXKfhtMaRhq2gZjvA/VICyHEFhCPre7aZaqrWfeOjJj33uMOlxokziG51zB+9/PzHJ9AW8x1TVnZ2jHD0rAQQmwBrpPcv9/ccYfZvZuTYcfH2TWNWNzbGwwVa2utLJNjDaPxZWdmzc1Rw57HDSxLSqRhIYTYKh744qv/yXdPpDU8NGT6+69o2NfMnOySew1fnYalYSGEyAKum3jlqVPxeJCGrYZHRri/hzScZXLfKY00jChsf/fFxaaykv3SWq0khBBbSszz9+0zn/yk2bWLcejSJRYoeXqas2WRixCTRBYIRae01XAiEWi4vFxpWAghthbXSR44wEHipiZK9+JFloGBQMN2xpbIAqHolIaG7byAdBoWQgix1Tz85ePQcENDkIah4f7+K2lYU6azQ4jSsO2UrqhgGlantBBCbD2pez5/HBretcvs3MntppGIurpYxsdZOYssEK6xYbwJlIaFECKLpJ66h7Om9+7lYYgLC4zFly9zupY0nB1CkYbR/kqPDSMN67R/IYTIGq6bgIabm6nh+Xk62O6rJQ1nh9B1SiMNp3L8QwkhRGHxyF3t+/dzkLioiBXy2Bg1jEA8MUExawnTlhIiDSMN205pTZMWQohs4jrJZ+9r37OH5y9BuqiQYeKBgWD90spK8G1iKwiLhu3WLbZTWvOzhBAiyzhO8ql7TnxYw1NT0vDWkjMNp9YOdUAChobtZpb4Ehp+9y51fwghRA5w3URdnamvZyZeXOSBxHZDD7vLIapr1NIi4+RGw2kH41e7tMS5eSh4cuE5X1FYCCFyxfMPnDxyhBt6IBN3dpr33zc9PRwh1oYeW0fuNYw0DAcjEPMXnOM+ciGEKGg8z4eGd+9m/dzRQQ0jE0PDyEuorqXhrSBnGkZTCwLGrxYtLPy+QSymyVlCCJFjvv65Vxsa2C8N6SIgjY9za62+viATo/ZGERkkNxrGb9fOzEKBjyHgsrK1g5WUhoUQItc89OX2piauJK6pYVi6fNmcPs2ttaangxFimTiDhEXDOt9QCCFCguskf/D063v3Bhq+dMm8/TZ7p62GFYgzS240jF8kfrVwsF2nFI+zAwQm1vwsIYQIA/HY6r593NDD87h4CVG4v58bekxNsad6dTX4NnHz5CwNQ8MzM8GuHRBwVZW2khZCiLCAQPzSoycOHgyOfFhcDGR84YIZGmKIEpkil2l4ejrQcEmJjhkWQohw4bqJbz/QXlfHDkvU2NBweiUxArHIFDnTMNpWNg0jGSMNWw1ruEEIIcIDB4mf+hnqZ5gY6u3vDzSMEKUNPTJF7julrYarqszUU9o/SwghwkVRfPXoUXPLLQxLCwsMxHaQeGKCk3u0z+XNk8tOaathXNs0bLzgT4UQQoQE10386JkTVsMIxFbDw8PU8NycNJwBctkpjZYUSjoNa5q0EEKEEM9NfOfhdtTSq6vMwSjQMMr0NAOVuEly3yl9JQ1Lw0IIEUpcJ9nUZNraWEpKeBrxO+8EK4m1jPgmyX2ntE3DXQ/oUAchhAgvz3zzxIED5uBBahhR2G7oMTUVOFgm3jShGBvGLzWVmx9ECCHEunDdxMtPnISJUWOPjweHL01OMkrJwTdDVu2HX5Xvc0gfZXk5ONTB88zkk5ojLYQQYcdzE3v2mLo6s2NHsKfH4KA5c8b09rJ3Gj4WmyCrGsYvCd5NOxgFVoaGc5TJhRBCbIjUvV94FRquqDDFxVy/BA2fO8fzl6ampOFNkps0DA1fnYalYSGEyBeevvckNHx1GoaG7UQfsQmyKkBIF/adn2cbCkpGY6q8nPOzNDlLCCHyBddL7NtnjhxhJp6bMxcvcq/pgQEOGEPGS0vy8cbIdqc0NIxfm9VwSYnZvp0aFkIIkS84JvXc/SduvZX7PaAytxq2W2vZlcSasbUhcpmGr2hYaVgIIfIH10k8e9/xazQ8OhpoWGl4Q2Rbw/gNzc7yNwfKytingUe1nIQQIt9Ivfzk601NZu9ejhNPTHCQ+PJlLilGDW8PflAsXg8565QG5eXU8NLzWq0khBD5R9zz9+83t93GbRCRg0+fNufPc5AYlTyqet+XhtdFDtKw1bDjMAfrRAchhMhT1k59eO2Tnww0/M471PDgICt5ux5VGl4PORgbvjoNU8NZ/RGEEEJkDM/z29pMfT1jVTLJmdJDQ+ya7u3lSuLV1eDbxA3ImYaRhrdto4a1WkkIIfIUx6Tu+51Xd++miaur+czwsHn3XXPhAi+QicXHku2xYTtFa3GRGg7SsDQshBD5zBPfaN+1y9TUsBfaavj8ea5fkobXQ+47pZWGhRAir7HHILa2ciUx4hYEPDDA3mlcTE6ywkflLz6KbGs4PUULlJWZd+/SNGkhhMh7jt3d/olPmJYW7gaxukr7wsQdHTwMcXycAUx8FLkcG+5/SGcMCyFEFHCc5ONfe7W5mRpeWeH8rMFBztXq6eGSYvVO34DsaTiVCtYNw8HIxHwmq20AIYQQW8vjXz+xa5eprTWxGGdNd3ayjIxw80Rt6PFRZMmEuPUo+B3YE5bw+0Aa1uQsIYSIEq6TaG01n/qUQSxGJY8ofOkSz18aH+fkXAQwDRJ/mGxo2DoYBWnYahiP1LAQQoho8chdx//0ldf27mWdbzXc308Nz61trSUNf5gsaRi3HgkYBQKGjIHnaY60EEJEDcekYt7qj559vayM3p2aMmNjnDU9OspualgARhBXkw0Nw8HpCdL4BRQXc450UVHwp0IIISJG3PObm83hw9zWA+rt7DRnzwbbTcMCtghLNjSMBJzetSOt4dSLWqokhBDRxHUTLS3m0CHT0MAk1tVlzp3j3On5eXaI2j5RYcleGoaG8QuAhktKqOGs/MtCCCFyw6N3tUPDjY2cCYQcjEAMDU9PM48hH8vEabIhQ9zxhQWOENh2UGkpF5Y5OlhJCCGii+Mkn/xG+9693Gu6uJgimJhgLL58mUuY7CZOAmSpUxoChoYRiJGGEYWhYaVhIYSINjTxPe1Xa7i7m1trQcPIxMKSJQ2j4TM5GQzOIw3v2CENCyFE9HGd5MtP/Ky8nJU/wlhvL9Pw8PCVQWI8X+BkqVM6nYZx0/H7gIa1WkkIIQqBeHz1yBGzfz+7QpHHurq4nrivj6uYpqe13XQWO6Vx922ntB0b1hZaQghRCHhu4kfPnISGUflbDSMT9/czE0vDIEtp+OpOaaVhIYQoKDzXf+nRE1enYWk4TVbT8MwMO6Xxm7h8nxYNCyFEAeG6yT17uKEHYrHnMRC/9RbHiUdHOV1rZaVw97nM3thwOg1r0bAQQhQeqecfPHn0qDlwgOcv9fWZN9/kjtN28VIhbzed7bFhpOG+h3ztYiaEEIWG5/o/ePKE1XBPT5CG7eIlpeEtAfcUdxb3FwUtHVzDwbj7GhUWQojCxHUTe/Zwa62GBlNVxQ0W4WPEYvh4bIyaQGyDKQqKrdUw7IscbDsccHNBPK450kIIUbjc+4Xje/ea1lbT1ETjdnaav/1bc/48Z2xZU0jDGcNqGA62adhqWGlYCCEKm9Qz3zzR0mIQi2Hcri7zy18GGkYaXl2lOwpqT48t1LBdp2S3kgb2RIeiVzRHWgghChrXTezbZ9razK5dXEwM+8IUfX3mwgUe/2B3mCgctlbDdmYWZAy2bTMVFcaJrf2ZEEKIAuabv/3qK0+caG42dXW0w+IiNfz22+yjhjUKql96yzU8McFHx+HOWTt26GAlIYQQBJn45Sdeg4bLywMNv/VWoGGl4cywssK+hfFxLhd2XTq4stIYaVgIIcQanucjELe2sq8UyW14mBtNDwxwjy24AxGuEFYxbW0ahoDtrYSGcZerqrb0HxRCCJFPOCb13Lfa/4s/fH33bg4SIxOPjfEwxDNn+Dgxwbm9SMbRDsdbnoZxTyFjx2EUhoY1TVoIIUQax0kWx5f/4IXXy8oCDff0mLNnqeHJyUDD0SZ7ndJBGpaGhRBCfJCimN/QwInTnkf7XrzIQeK+Pu6xNTVFPUe4d3prNQwBo2ljO6WRhgcf9ZWGhRBCXIPrJg4eNJ/9LDfYgnERiC9d4vqlc+d4bXuno8qWaNh25X84Dac0MCyEEOJ6PPDFV//g+XZk4mSSPdLQMDIxNGx7p1dXg2+LHpkXI+4g2jK4ZUtLXDEME8PH8bjpf1hRWAghxEfiOslXnjyFzAZlwCAjI9xruquLc6cRiGETPBm93unMa9j3eaeQgO1W0rhlnmeKixWFhRBCfAzxmH/0qPn8582+fdz8eHiYg8RIxufPMxaPj1MrEZu0tSUaXlxkswUaRg6Ghh2HO1kqCgshhLgxjpN86bF2aLi1lZl4cNB0dAQaRiyGhqEVECUTZ17Dq6vU8PQ0NQwlIwoXFRnzkraSFkII8fG4TvLpe19taeGMIgS5mRnK+PJlxuKhoUAukHFkNrzMvIbtzKyxMd4pOLiykkVbSQshhFg/T9174uhR87nPMRbHYtxXC4EY5cKFoHd6aSn4znwn8xpeXmbj5RoNb8G/I4QQIrK4TuLFR9v/mz85tX8/VWLPX0KxvdNQDFwTDbY8DVdVsWNBGhZCCLEhXCdZFF/5w+9wgy2ku4EBriG2c6dHRzkR2PfZa53v48RbkoanpznRfH4+0DD3sJSGhRBCbJx4bPXwYe7sgUf4GAKGiTs6OFRsd/bI997pzOsRdwTNFtwpaDgWM9XV2sNSCCHEJkEm/sGTJ37rt8yRI9Tw2BgdbE3c2xuFQeItScPQcDoNQ8OVlVqtJIQQYpO4buK7Dx9HGi4v5xbT3d3sl7Zp2GrYbt2Yp2RMw7gFdv8s3JHpaTZYFhe56gsa7rxfq5WEEELcDKljX2uHiT/9aXP0KE9FHBzkQUyIxcjECH6If3k6aSvDGkaxndJpDdfWamBYCCHEzeI6yZcePfHf/unPjhyhhoeGrtWw3dkj78ikhlFsGrYaXlighs9+XVFYCCFEBnDdREnx0h9/97WSEmr4zBlq2J6HWOhpGAK265TG185TQiYuKuJYetEPdJyDEEKITBLzEi0tnDjd2soZSP395u23g7OY4OapqTybtJWxNGxDsJ0gDSuXllLD2jxLCCFEZnGc5PcfP3nbbTQxIh/S8FtvsYO6o4MDxgWqYXjXTpAeWzvk32q4vNw4XvANQgghRKaIef5Pnjtx6BCP70MaTmvYHolYoBrGy0YbZHj4ysws7mEpDQshhNgCXDexd6+xZdcuDoba3ukLFzhpC5lwdpb5EHoKOZnslIaGh4ao4aIis3Mnlypl7q8XQgghPsDXP/fq/v3m1lu5swdi8eCgeeMNztuyZzFNTuZHLM5YGraHG9o0DA3X1VHDmp8lhBBi63jw91695RZje6cHBsyvf31Fw0iG8FGhpOFrOqVxO6BhbiUtDQshhNhK7vk8DyfevZtd05WVPO/BrmXq6qKSZmepp9XV8Po4AxrGa7Np+OpOaWh48FGtGBZCCLHl3PuFVw8cMJ/4hLntNrN9O5fOvvkmlzD19XHGFky8shJdDdsXZjU8OfmBNKzNs4QQQmSHY3cfv/VWanjHDs7Pshru7aWG5+ZCPVfrplSJV5VIsJUB9aIsLLDRkUxytdKl+7RxhxBCiKyReujLx9vaTEMDTew4XD07OMiJ08jEU1Psl4aeQijjm9UwXpi1Lx7R3ICVYzFjvicHCyGEyCqOSX3r7x1vbTUHD3LudHk5d5T69a8Zi4eGAkOF0MQ323GMKAwBz8yw3YEX6fvcWky7dgghhMgFqWN3H7catocTv/GGOX+eA6YwVATTMF4SXtjcXLA8y3HY+sAr164dQgghcoLjpJ74entbGxfNwkpTU8zESMP9/TwBYnY2dL3TN9spDfvCwXhteGEQcGMj98+66YwthBBCbBLHSSITNzdzFVNDA2U8MMBY/N57lPHCQrh6p282DS+urVNCW2NlhVG4qcnU1GiOtBBCiFyCTPzct05ASVbDdoOt998PNOz7UdEwXoPVsE3DaQ0bzc8SQgiRU1w3gTSMTAw3zc9zay0UezgxtGUzcRjIQBq2ndJIw2Vl1PDEU374hsCFEEIUHA9/+fiffP+1lhbu6ohMPD1tenrMO+8Ec6dDsuN05tNwSvOzhBBChADHScVjqz965lRlJcIxNdzdbU6f5laXg4PUcBj6pTepYfzoiMK+Tw3jhY2P8xoa7n5IK4aFEEKEiJi3unMnN7mEtsbGzKVL5vJlpmHICyZeWeHzOWQzGoaDIV27edbCAgsu8OTcs3KwEEKIcIFM/IOnXrvzTm7rUVXFvltEx95ebrAFJY+O5rh3evMaXl6mfdMmJjfVwy2EEEJsCQjEf/TCibSGJyY4V8tq2B6FkMPe6c1rGM2H+XkKGBd4VQ5ysDQshBAilLhu4sVHTlRXc5B4bo5jwxcvsncaGobLcriSeDPmhINnZ/mjDwywEVFaGpzyqB5pIYQQoQUmPnDA3HmnaWszJSUcJ+7s5LHEPT3U2eQke3mzz2Y0jFYDNDwywnXQ0DBeTH09k76WCwshhAgzT3z9+E9/8trBgzTX6Kjp6KCGu7sZjqemOOcp+2xew+k0bDWsNCyEECLk2CVMP372tbIyavjqNAwN50EaTq2tU1pd5TzvoSHONIOG7VbSE0/5wTcJIYQQIcZzE62t5lOfYu90URGna505QyXDa3aDLWgua2xAw3DwNRq2ndJWw9q1QwghRF7gOMmXHz95++1cwhSPs0f67NkrGp6f5xSorLHhNIyyssIDhvFzowVhNTx4TCuGhRBC5A2e5//4WS5hQhpGpMyPNJxIsI0wPs7+dLv5CJSMF+C/6OtIJSGEEPmF6yReePDknj08/mHnTibgnh6ewtTby6hp1y+hbDUb8KddpwQHIwdDw8jErsv5WTrkXwghRD7ieYl9+8yhQzQxgIZPn+bEaWRiu5I4C2xMw3Nz1PDwcKBhz5OGhRBC5C+pY3e3Q8N79/ILCPjttzl3GhqGg20g3mo2oGF4d3KS48EoS0vcJrupydTWap2SEEKIfMVxko9/vR0arqnhblQIwXCw3XF6cJB9wFvdNb0uDdsfAhqemGBmR3thdZUCbmvjimFpWAghRP7iOskn72lvbDR1dTwqcGGBgfj0aU7aQvjc6kHijaVhaBhtBBRoGA2HAwfM6JNaLiyEECK/gYlfeuw1ex7i/Dx313rrLcoYGrYOzqWG/d8cKoyfxhb8iPE455UhxSc34HEhhBAipMS8RHMzvVZayolQPT3MnP39wXbTdnHQVvDxFkXwnZnhtKzBQf4oSOv4UfBT1taaM99QFBZCCBEFHCf5/IPtR44wZILxcQq4s9OcP08Zw4O51/DQ0BUNl5WZkcflYCGEENHBdZJP33ucU49TPH8prWFc5EDD+PdQkkn2SOOnQTxP75mFH7GmxmjLDiGEEJEj9dJjp+rq1jSXYia+fJm90yMjHJxFEF1ZybCPb6ThRIJReG6OOfjiRU6QxjMNDQaZ3fuxdq8UQggRQeIx/+hRHku8axel29FB/dksilA6P5/hbT0+RsN2y47BQa6gshpuajKHD5tULPg2IYQQIko4TvLFR9o//WmuX4KGO39zGCIyMTRsR2YzyEdqGALGPzY5yX/VltlZU1zMNDz1bW0iLYQQIrLAxMfuPt7YyPVLAAl4aMhcusRAPDHBWdNQZKYy8UfqdHGRXeGXL7MJAAHH46aqiqPCC9+Rg4UQQkSe1HcfOXn4MI8lrqzk1lpvvWXOneOs6elpKhJBOSMm/hgNd3RQw3NzJhbjz8H5Y9pBWgghRAEQ83xo+I47TEUF+4athhGI7Vyt1dXM9E5fq2G4HYaHg/HPIIN3dXFgGP8Yfoj6epN8WTOzhBBCFArf+nuv2pXEMK5duAsnDgxwBjUCqu2avkkZX6thCNjuWNndTefjH5ufZ+d4W5u55RaTigffJoQQQhQCd9356t693LwZPoYNEYvffpvHEvf3c8QWwRUyvhkTf0DD+IugYUgeAu7p4b8B7eMZq+HpFxSFhRBCFBxP3tO+f785epQ2RFJ96y1z5gxFaTWcSNychhGoUVZXzfIyZ39NTQV90enVyvjTykoz+LgcLIQQohBZO/iB07Vgw4UFbqRx6RKTKlIrTAx1wsSbxvvJT34KAY9dtWvXuXNcJYzcHYtxThaaAGV/39fMLCEsn10865mMLhsUQoQemPjOW852DNyC1ArvlpYa12VvMa4Bvoz/ZtDW2WBkdWdmuFWm3aDj179mQdw+fZrPFBWZgwfNrbdqsw4hhBCFjucmXnr0ZGPj2qKhFC355pvmnXfYO42IvOm5Wi4CNYpdmPz22xQw/tL33uMzxcUclO59TN3RQgghhPE8v77eVFfTuLAkpHnmDPuSrYY3Z2LnH6RWg0shxPr44cTrwVVYiaduYqhKCPHR/PP/74m33uLcqcm1A/gPHjS/+7vmi180e/awm9rz+LghpGEhIkj4GwpC5CN/Wf1QcJUJ/shwxFcaFkIIIXIDTCwNC7ExbAM25Px3xg+uhBBhhZWJMf8/n22zCrSlDlYAAAAASUVORK5CYII=;" vertex="1" parent="1">
          <mxGeometry x="100" y="271" width="211" height="159" as="geometry" />
        </mxCell>
        <mxCell id="59ba3HTT9blOdmE4UWJ2-3" value="" style="endArrow=classic;html=1;rounded=0;strokeWidth=2;" edge="1" parent="1">
          <mxGeometry width="50" height="50" relative="1" as="geometry">
            <mxPoint x="101" y="430" as="sourcePoint" />
            <mxPoint x="101" y="240" as="targetPoint" />
          </mxGeometry>
        </mxCell>
        <mxCell id="59ba3HTT9blOdmE4UWJ2-4" value="" style="endArrow=classic;html=1;rounded=0;strokeWidth=2;" edge="1" parent="1">
          <mxGeometry width="50" height="50" relative="1" as="geometry">
            <mxPoint x="101" y="430" as="sourcePoint" />
            <mxPoint x="331" y="430" as="targetPoint" />
          </mxGeometry>
        </mxCell>
        <mxCell id="59ba3HTT9blOdmE4UWJ2-5" value="" style="endArrow=none;dashed=1;html=1;rounded=0;strokeWidth=2;dashPattern=1 1;" edge="1" parent="1">
          <mxGeometry width="50" height="50" relative="1" as="geometry">
            <mxPoint x="149" y="430" as="sourcePoint" />
            <mxPoint x="149" y="275" as="targetPoint" />
          </mxGeometry>
        </mxCell>
        <mxCell id="59ba3HTT9blOdmE4UWJ2-6" value="&lt;p&gt;&lt;font face=&quot;Times New Roman&quot;&gt;SP&lt;/font&gt;&lt;/p&gt;" style="text;whiteSpace=wrap;html=1;" vertex="1" parent="1">
          <mxGeometry x="141" y="415" width="27" height="50" as="geometry" />
        </mxCell>
        <mxCell id="59ba3HTT9blOdmE4UWJ2-7" value="" style="endArrow=none;dashed=1;html=1;rounded=0;strokeWidth=2;dashPattern=1 1;entryX=0.559;entryY=0.006;entryDx=0;entryDy=0;entryPerimeter=0;" edge="1" parent="1" target="59ba3HTT9blOdmE4UWJ2-2">
          <mxGeometry width="50" height="50" relative="1" as="geometry">
            <mxPoint x="218" y="430" as="sourcePoint" />
            <mxPoint x="218" y="309" as="targetPoint" />
          </mxGeometry>
        </mxCell>
        <mxCell id="59ba3HTT9blOdmE4UWJ2-8" value="&lt;p&gt;&lt;font face=&quot;Times New Roman&quot;&gt;DP&lt;/font&gt;&lt;/p&gt;" style="text;whiteSpace=wrap;html=1;" vertex="1" parent="1">
          <mxGeometry x="211" y="415" width="27" height="50" as="geometry" />
        </mxCell>
        <mxCell id="59ba3HTT9blOdmE4UWJ2-9" value="" style="endArrow=none;dashed=1;html=1;rounded=0;strokeWidth=2;dashPattern=1 1;" edge="1" parent="1">
          <mxGeometry width="50" height="50" relative="1" as="geometry">
            <mxPoint x="192" y="430" as="sourcePoint" />
            <mxPoint x="192" y="314" as="targetPoint" />
          </mxGeometry>
        </mxCell>
        <mxCell id="59ba3HTT9blOdmE4UWJ2-10" value="&lt;p&gt;&lt;font face=&quot;Times New Roman&quot;&gt;DN&lt;/font&gt;&lt;/p&gt;" style="text;whiteSpace=wrap;html=1;" vertex="1" parent="1">
          <mxGeometry x="184" y="415" width="27" height="50" as="geometry" />
        </mxCell>
        <mxCell id="59ba3HTT9blOdmE4UWJ2-11" value="Single Cardiac Cycle PPG signal" style="text;whiteSpace=wrap;html=1;fontSize=14;fontFamily=Times New Roman;" vertex="1" parent="1">
          <mxGeometry x="111" y="210" width="200" height="30" as="geometry" />
        </mxCell>
        <mxCell id="59ba3HTT9blOdmE4UWJ2-12" value="&lt;p&gt;&lt;font face=&quot;Times New Roman&quot;&gt;A1 area&lt;/font&gt;&lt;br&gt;&lt;/p&gt;" style="text;whiteSpace=wrap;html=1;" vertex="1" parent="1">
          <mxGeometry x="106.5" y="391" width="70" height="40" as="geometry" />
        </mxCell>
        <mxCell id="59ba3HTT9blOdmE4UWJ2-13" value="&lt;p&gt;&lt;font face=&quot;Times New Roman&quot;&gt;A2 area&lt;/font&gt;&lt;br&gt;&lt;/p&gt;" style="text;whiteSpace=wrap;html=1;" vertex="1" parent="1">
          <mxGeometry x="221" y="391" width="70" height="40" as="geometry" />
        </mxCell>
        <mxCell id="59ba3HTT9blOdmE4UWJ2-14" value="" style="endArrow=classic;startArrow=classic;html=1;rounded=0;dashed=1;fontFamily=Times New Roman;fontSize=14;strokeWidth=1;" edge="1" parent="1">
          <mxGeometry width="50" height="50" relative="1" as="geometry">
            <mxPoint x="148" y="270" as="sourcePoint" />
            <mxPoint x="217" y="270" as="targetPoint" />
          </mxGeometry>
        </mxCell>
        <mxCell id="59ba3HTT9blOdmE4UWJ2-15" value="&lt;p&gt;&lt;font face=&quot;Times New Roman&quot;&gt;&lt;span style=&quot;font-size: 14px&quot;&gt;delta t&lt;/span&gt;&lt;/font&gt;&lt;br&gt;&lt;/p&gt;" style="text;whiteSpace=wrap;html=1;" vertex="1" parent="1">
          <mxGeometry x="163" y="236" width="45.5" height="40" as="geometry" />
        </mxCell>
        <mxCell id="59ba3HTT9blOdmE4UWJ2-16" value="Spectrogram" style="text;whiteSpace=wrap;html=1;fontSize=14;fontFamily=Times New Roman;" vertex="1" parent="1">
          <mxGeometry x="410" y="206" width="74.83" height="30" as="geometry" />
        </mxCell>
      </root>
    </mxGraphModel>
  </diagram>
</mxfile>
